<svg class="main-svg" xmlns="http://www.w3.org/2000/svg" xmlns:xlink="http://www.w3.org/1999/xlink" width="289" height="130" style="" viewBox="0 0 289 130"><rect x="0" y="0" width="289" height="130" style="fill: rgb(255, 255, 255); fill-opacity: 1;"/><defs id="defs-b11953"><g class="clips"/><g class="gradients"/><g class="patterns"/></defs><g class="bglayer"/><g class="layer-below"><g class="imagelayer"/><g class="shapelayer"/></g><g class="cartesianlayer"/><g class="polarlayer"/><g class="smithlayer"/><g class="ternarylayer"/><g class="geolayer"/><g class="funnelarealayer"/><g class="pielayer"/><g class="iciclelayer"/><g class="treemaplayer"/><g class="sunburstlayer"/><g class="glimages"/><g class="sankey" transform="translate(10,30)matrix(1 0 0 1 0 0)" style="box-sizing: content-box; position: absolute; left: 0px; shape-rendering: geometricprecision; pointer-events: none;"><g class="sankey-links" style="fill: none;"><path class="sankey-link" d="M16,62.388491355185785C71.25,62.388491355185785 71.25,84.8453450508106 126.5,84.8453450508106L126.5,85.27990987416509C71.25,85.27990987416509 71.25,62.82305617854028 16,62.82305617854028Z" style="stroke: rgb(108, 145, 194); stroke-opacity: 0.2; fill: rgb(108, 145, 194); fill-opacity: 0.2; stroke-width: 1; opacity: 1;"/><path class="sankey-link" d="M16,55.099808039044376C71.25,55.099808039044376 71.25,57.21359340183767 126.5,57.21359340183767L126.5,64.50227671797909C71.25,64.50227671797909 71.25,62.38849135518579 16,62.38849135518579Z" style="stroke: rgb(68, 68, 68); stroke-opacity: 1; fill: rgb(108, 145, 194); fill-opacity: 0.2; stroke-width: 0; opacity: 1;"/><path class="sankey-link" d="M16,45.82899274020006C71.25,45.82899274020006 71.25,31.038267241558888 126.5,31.038267241558888L126.5,40.30908254040321C71.25,40.30908254040321 71.25,55.09980803904438 16,55.09980803904438Z" style="stroke: rgb(68, 68, 68); stroke-opacity: 1; fill: rgb(108, 145, 194); fill-opacity: 0.2; stroke-width: 0; opacity: 1;"/><path class="sankey-link" d="M16,31.680160210491685C71.25,31.680160210491685 71.25,-4.973799150320701e-14 126.5,-4.973799150320701e-14L126.5,14.148832529708319C71.25,14.148832529708319 71.25,45.82899274020006 16,45.82899274020006Z" style="stroke: rgb(68, 68, 68); stroke-opacity: 1; fill: rgb(108, 145, 194); fill-opacity: 0.2; stroke-width: 0; opacity: 1;"/><path class="sankey-link" d="M16,84.96007008465678C71.25,84.96007008465678 71.25,85.27990987416509 126.5,85.27990987416509L126.5,90.00000000000001C71.25,90.00000000000001 71.25,89.6801602104917 16,89.6801602104917Z" style="stroke: rgb(68, 68, 68); stroke-opacity: 1; fill: rgb(175, 199, 120); fill-opacity: 0.2; stroke-width: 0; opacity: 1;"/><path class="sankey-link" d="M16,80.61700175182534C71.25,80.61700175182534 71.25,64.50227671797909 126.5,64.50227671797909L126.5,68.84534505081054C71.25,68.84534505081054 71.25,84.96007008465679 16,84.96007008465679Z" style="stroke: rgb(68, 68, 68); stroke-opacity: 1; fill: rgb(175, 199, 120); fill-opacity: 0.2; stroke-width: 0; opacity: 1;"/><path class="sankey-link" d="M16,79.71249089039091C71.25,79.71249089039091 71.25,40.3090825404032 126.5,40.3090825404032L126.5,41.213593401837635C71.25,41.213593401837635 71.25,80.61700175182534 16,80.61700175182534Z" style="stroke: rgb(175, 199, 120); stroke-opacity: 0.2; fill: rgb(175, 199, 120); fill-opacity: 0.2; stroke-width: 1; opacity: 1;"/><path class="sankey-link" d="M16,78.82305617854031C71.25,78.82305617854031 71.25,14.148832529708319 126.5,14.148832529708319L126.5,15.038267241558913C71.25,15.038267241558913 71.25,79.7124908903909 16,79.7124908903909Z" style="stroke: rgb(175, 199, 120); stroke-opacity: 0.2; fill: rgb(175, 199, 120); fill-opacity: 0.2; stroke-width: 1; opacity: 1;"/><path class="sankey-link" d="M142.5,87.28741953419353C197.75,87.28741953419353 197.75,82.28809998762178 253,82.28809998762178L253,83.13115153654412C197.75,83.13115153654412 197.75,88.13047108311588 142.5,88.13047108311588Z" style="stroke: rgb(108, 145, 194); stroke-opacity: 0.2; fill: rgb(108, 145, 194); fill-opacity: 0.2; stroke-width: 1; opacity: 1;"/><path class="sankey-link" d="M142.5,84.8453450508106C197.75,84.8453450508106 197.75,57.62610172106117 253,57.62610172106117L253,60.06817620444411C197.75,60.06817620444411 197.75,87.28741953419352 142.5,87.28741953419352Z" style="stroke: rgb(68, 68, 68); stroke-opacity: 1; fill: rgb(175, 199, 120); fill-opacity: 0.2; stroke-width: 0; opacity: 1;"/><path class="sankey-link" d="M142.5,62.680759390800695C197.75,62.680759390800695 197.75,80.64144053637334 253,80.64144053637334L253,82.28809998762178C197.75,82.28809998762178 197.75,64.32741884204913 142.5,64.32741884204913Z" style="stroke: rgb(68, 68, 68); stroke-opacity: 1; fill: rgb(108, 145, 194); fill-opacity: 0.2; stroke-width: 0; opacity: 1;"/><path class="sankey-link" d="M142.5,57.21359340183767C197.75,57.21359340183767 197.75,52.15893573209814 253,52.15893573209814L253,57.626101721061175C197.75,57.626101721061175 197.75,62.6807593908007 142.5,62.6807593908007Z" style="stroke: rgb(68, 68, 68); stroke-opacity: 1; fill: rgb(175, 199, 120); fill-opacity: 0.2; stroke-width: 0; opacity: 1;"/><path class="sankey-link" d="M142.5,35.84203872182648C197.75,35.84203872182648 197.75,78.62367335879006 253,78.62367335879006L253,80.64144053637332C197.75,80.64144053637332 197.75,37.859805899409764 142.5,37.859805899409764Z" style="stroke: rgb(68, 68, 68); stroke-opacity: 1; fill: rgb(108, 145, 194); fill-opacity: 0.2; stroke-width: 0; opacity: 1;"/><path class="sankey-link" d="M142.5,31.038267241558884C197.75,31.038267241558884 197.75,47.355164251830544 253,47.355164251830544L253,52.15893573209814C197.75,52.15893573209814 197.75,35.84203872182648 142.5,35.84203872182648Z" style="stroke: rgb(68, 68, 68); stroke-opacity: 1; fill: rgb(175, 199, 120); fill-opacity: 0.2; stroke-width: 0; opacity: 1;"/><path class="sankey-link" d="M142.5,7.083932682138C197.75,7.083932682138 197.75,76.06817620444409 253,76.06817620444409L253,78.62367335879006C197.75,78.62367335879006 197.75,9.639429836483972 142.5,9.639429836483972Z" style="stroke: rgb(68, 68, 68); stroke-opacity: 1; fill: rgb(108, 145, 194); fill-opacity: 0.2; stroke-width: 0; opacity: 1;"/><path class="sankey-link" d="M142.5,-4.973799150320701e-14C197.75,-4.973799150320701e-14 197.75,40.271231569692496 253,40.271231569692496L253,47.35516425183055C197.75,47.35516425183055 197.75,7.083932682137999 142.5,7.083932682137999Z" style="stroke: rgb(68, 68, 68); stroke-opacity: 1; fill: rgb(175, 199, 120); fill-opacity: 0.2; stroke-width: 0; opacity: 1;"/></g><g class="sankey-node-set" style="cursor: move;"><g class="sankey-node" transform="translate(0.000,31.680)" style="opacity: 1;"><rect class="node-rect" width="16" height="31.142895968048624" style="stroke-width: 0; stroke: rgb(0, 0, 0); stroke-opacity: 0; fill: rgb(108, 145, 194); fill-opacity: 1;"/><text class="node-label" data-notex="1" x="0" y="0" text-anchor="start" transform="translate(19,8.44644798402431)" style="cursor: default; font-family: Arial, Helvetica, 'Microsoft YaHei'; font-size: 7.5px; fill: rgb(42, 63, 95); fill-opacity: 1; text-shadow: rgb(255, 255, 255) 1px 1px 1px, rgb(255, 255, 255) -1px -1px 1px, rgb(255, 255, 255) 1px -1px 1px, rgb(255, 255, 255) -1px 1px 1px; white-space: pre;"><tspan class="line" dy="0em" x="0" y="0">DC</tspan><tspan class="line" dy="1.3em" x="0" y="0">Cost Attribution</tspan><tspan class="line" dy="2.6em" x="0" y="0"> (702.2)</tspan></text></g><g class="sankey-node" transform="translate(0.000,78.823)" style="opacity: 1;"><rect class="node-rect" width="16" height="10.857104031951451" style="stroke-width: 0; stroke: rgb(0, 0, 0); stroke-opacity: 0; fill: rgb(175, 199, 120); fill-opacity: 1;"/><text class="node-label" data-notex="1" x="0" y="0" text-anchor="start" transform="translate(19,-1.6964479840242754)" style="cursor: default; font-family: Arial, Helvetica, 'Microsoft YaHei'; font-size: 7.5px; fill: rgb(42, 63, 95); fill-opacity: 1; text-shadow: rgb(255, 255, 255) 1px 1px 1px, rgb(255, 255, 255) -1px -1px 1px, rgb(255, 255, 255) 1px -1px 1px, rgb(255, 255, 255) -1px 1px 1px; white-space: pre;"><tspan class="line" dy="0em" x="0" y="0">Non-DC</tspan><tspan class="line" dy="1.3em" x="0" y="0">Cost Attribution</tspan><tspan class="line" dy="2.6em" x="0" y="0"> (244.8)</tspan></text></g><g class="sankey-node" transform="translate(126.500,84.845)" style="opacity: 1;"><rect class="node-rect" width="16" height="5.154654949189393" style="stroke-width: 0; stroke: rgb(0, 0, 0); stroke-opacity: 0; fill: rgb(28, 139, 132); fill-opacity: 1;"/><text class="node-label" data-notex="1" x="0" y="0" text-anchor="start" transform="translate(19,5.202327474594696)" style="cursor: default; font-family: Arial, Helvetica, 'Microsoft YaHei'; font-size: 7.5px; fill: rgb(42, 63, 95); fill-opacity: 1; text-shadow: rgb(255, 255, 255) 1px 1px 1px, rgb(255, 255, 255) -1px -1px 1px, rgb(255, 255, 255) 1px -1px 1px, rgb(255, 255, 255) -1px 1px 1px; white-space: pre;">Houston (TX)</text></g><g class="sankey-node" transform="translate(126.500,57.214)" style="opacity: 1;"><rect class="node-rect" width="16" height="11.631751648972923" style="stroke-width: 0; stroke: rgb(0, 0, 0); stroke-opacity: 0; fill: rgb(78, 165, 159); fill-opacity: 1;"/><text class="node-label" data-notex="1" x="0" y="0" text-anchor="start" transform="translate(19,8.440875824486461)" style="cursor: default; font-family: Arial, Helvetica, 'Microsoft YaHei'; font-size: 7.5px; fill: rgb(42, 63, 95); fill-opacity: 1; text-shadow: rgb(255, 255, 255) 1px 1px 1px, rgb(255, 255, 255) -1px -1px 1px, rgb(255, 255, 255) 1px -1px 1px, rgb(255, 255, 255) -1px 1px 1px; white-space: pre;">North (TX)</text></g><g class="sankey-node" transform="translate(126.500,31.038)" style="opacity: 1;"><rect class="node-rect" width="16" height="10.175326160278786" style="stroke-width: 0; stroke: rgb(0, 0, 0); stroke-opacity: 0; fill: rgb(129, 191, 187); fill-opacity: 1;"/><text class="node-label" data-notex="1" x="0" y="0" text-anchor="start" transform="translate(19,7.712663080139393)" style="cursor: default; font-family: Arial, Helvetica, 'Microsoft YaHei'; font-size: 7.5px; fill: rgb(42, 63, 95); fill-opacity: 1; text-shadow: rgb(255, 255, 255) 1px 1px 1px, rgb(255, 255, 255) -1px -1px 1px, rgb(255, 255, 255) 1px -1px 1px, rgb(255, 255, 255) -1px 1px 1px; white-space: pre;">South (TX)</text></g><g class="sankey-node" transform="translate(126.500,-0.000)" style="opacity: 1;"><rect class="node-rect" width="16" height="15.038267241558934" style="stroke-width: 0; stroke: rgb(0, 0, 0); stroke-opacity: 0; fill: rgb(179, 216, 214); fill-opacity: 1;"/><text class="node-label" data-notex="1" x="0" y="0" text-anchor="start" transform="translate(19,10.144133620779467)" style="cursor: default; font-family: Arial, Helvetica, 'Microsoft YaHei'; font-size: 7.5px; fill: rgb(42, 63, 95); fill-opacity: 1; text-shadow: rgb(255, 255, 255) 1px 1px 1px, rgb(255, 255, 255) -1px -1px 1px, rgb(255, 255, 255) 1px -1px 1px, rgb(255, 255, 255) -1px 1px 1px; white-space: pre;">West (TX)</text></g><g class="sankey-node" transform="translate(253.000,76.068)" style="opacity: 1;"><rect class="node-rect" width="16" height="7.062975332100066" style="stroke-width: 0; stroke: rgb(0, 0, 0); stroke-opacity: 0; fill: rgb(108, 145, 194); fill-opacity: 1;"/><text class="node-label" data-notex="1" x="0" y="0" text-anchor="end" transform="translate(-3,-3.5935123339499677)" style="cursor: default; font-family: Arial, Helvetica, 'Microsoft YaHei'; font-size: 7.5px; fill: rgb(42, 63, 95); fill-opacity: 1; text-shadow: rgb(255, 255, 255) 1px 1px 1px, rgb(255, 255, 255) -1px -1px 1px, rgb(255, 255, 255) 1px -1px 1px, rgb(255, 255, 255) -1px 1px 1px; white-space: pre;"><tspan class="line" dy="0em" x="0" y="0">DC</tspan><tspan class="line" dy="1.3em" x="0" y="0">Cost Allocation</tspan><tspan class="line" dy="2.6em" x="0" y="0"> (159.3)</tspan></text></g><g class="sankey-node" transform="translate(253.000,40.271)" style="opacity: 1;"><rect class="node-rect" width="16" height="19.796944634751583" style="stroke-width: 0; stroke: rgb(0, 0, 0); stroke-opacity: 0; fill: rgb(175, 199, 120); fill-opacity: 1;"/><text class="node-label" data-notex="1" x="0" y="0" text-anchor="end" transform="translate(-3,2.7734723173757905)" style="cursor: default; font-family: Arial, Helvetica, 'Microsoft YaHei'; font-size: 7.5px; fill: rgb(42, 63, 95); fill-opacity: 1; text-shadow: rgb(255, 255, 255) 1px 1px 1px, rgb(255, 255, 255) -1px -1px 1px, rgb(255, 255, 255) 1px -1px 1px, rgb(255, 255, 255) -1px 1px 1px; white-space: pre;"><tspan class="line" dy="0em" x="0" y="0">Residential User</tspan><tspan class="line" dy="1.3em" x="0" y="0">Cost Allocation</tspan><tspan class="line" dy="2.6em" x="0" y="0"> (446.4)</tspan></text></g></g></g><defs id="topdefs-b11953"><g class="clips"/></defs><g class="layer-above"><g class="imagelayer"/><g class="shapelayer"/></g><g class="infolayer"><g class="g-gtitle"/><g class="first-render"/></g></svg>