<svg class="main-svg" xmlns="http://www.w3.org/2000/svg" xmlns:xlink="http://www.w3.org/1999/xlink" width="289" height="130" style="" viewBox="0 0 289 130"><rect x="0" y="0" width="289" height="130" style="fill: rgb(255, 255, 255); fill-opacity: 1;"/><defs id="defs-0e9fd2"><g class="clips"/><g class="gradients"/><g class="patterns"/></defs><g class="bglayer"/><g class="layer-below"><g class="imagelayer"/><g class="shapelayer"/></g><g class="cartesianlayer"/><g class="polarlayer"/><g class="smithlayer"/><g class="ternarylayer"/><g class="geolayer"/><g class="funnelarealayer"/><g class="pielayer"/><g class="iciclelayer"/><g class="treemaplayer"/><g class="sunburstlayer"/><g class="glimages"/><g class="sankey" transform="translate(10,30)matrix(1 0 0 1 0 0)" style="box-sizing: content-box; position: absolute; left: 0px; shape-rendering: geometricprecision; pointer-events: none;"><g class="sankey-links" style="fill: none;"><path class="sankey-link" d="M16,23.86412806916082C71.25,23.86412806916082 71.25,4.618527782440651e-14 126.5,4.618527782440651e-14L126.5,25.75671249484329C71.25,25.75671249484329 71.25,49.62084056400406 16,49.62084056400406Z" style="stroke: rgb(68, 68, 68); stroke-opacity: 1; fill: rgb(108, 145, 194); fill-opacity: 0.2; stroke-width: 0; opacity: 1;"/><path class="sankey-link" d="M16,49.62084056400406C71.25,49.62084056400406 71.25,45.645673532792856 126.5,45.645673532792856L126.5,49.92420480314925C71.25,49.92420480314925 71.25,53.89937183436046 16,53.89937183436046Z" style="stroke: rgb(68, 68, 68); stroke-opacity: 1; fill: rgb(108, 145, 194); fill-opacity: 0.2; stroke-width: 0; opacity: 1;"/><path class="sankey-link" d="M16,53.89937183436045C71.25,53.89937183436045 71.25,66.87575580558347 126.5,66.87575580558347L126.5,70.143805966259C71.25,70.143805966259 71.25,57.167421995035966 16,57.167421995035966Z" style="stroke: rgb(68, 68, 68); stroke-opacity: 1; fill: rgb(108, 145, 194); fill-opacity: 0.2; stroke-width: 0; opacity: 1;"/><path class="sankey-link" d="M16,78.84476006235043C71.25,78.84476006235043 71.25,86.98063199318962 126.5,86.98063199318962L126.5,89.99999999999999C71.25,89.99999999999999 71.25,81.8641280691608 16,81.8641280691608Z" style="stroke: rgb(68, 68, 68); stroke-opacity: 1; fill: rgb(175, 199, 120); fill-opacity: 0.2; stroke-width: 0; opacity: 1;"/><path class="sankey-link" d="M16,73.16742199503597C71.25,73.16742199503597 71.25,25.75671249484329 126.5,25.75671249484329L126.5,29.645673532792838C71.25,29.645673532792838 71.25,77.05638303298551 16,77.05638303298551Z" style="stroke: rgb(68, 68, 68); stroke-opacity: 1; fill: rgb(175, 199, 120); fill-opacity: 0.2; stroke-width: 0; opacity: 1;"/><path class="sankey-link" d="M16,77.05638303298551C71.25,77.05638303298551 71.25,49.924204803149244 126.5,49.924204803149244L126.5,50.87575580558347C71.25,50.87575580558347 71.25,78.00793403541974 16,78.00793403541974Z" style="stroke: rgb(175, 199, 120); stroke-opacity: 0.2; fill: rgb(175, 199, 120); fill-opacity: 0.2; stroke-width: 1; opacity: 1;"/><path class="sankey-link" d="M16,78.00793403541974C71.25,78.00793403541974 71.25,70.14380596625898 126.5,70.14380596625898L126.5,70.98063199318966C71.25,70.98063199318966 71.25,78.84476006235042 16,78.84476006235042Z" style="stroke: rgb(175, 199, 120); stroke-opacity: 0.2; fill: rgb(175, 199, 120); fill-opacity: 0.2; stroke-width: 1; opacity: 1;"/><path class="sankey-link" d="M142.5,88.43798129093277C197.75,88.43798129093277 197.75,74.77537948065249 253,74.77537948065249L253,75.35312498096762C197.75,75.35312498096762 197.75,89.0157267912479 142.5,89.0157267912479Z" style="stroke: rgb(108, 145, 194); stroke-opacity: 0.2; fill: rgb(108, 145, 194); fill-opacity: 0.2; stroke-width: 1; opacity: 1;"/><path class="sankey-link" d="M142.5,86.98063199318962C197.75,86.98063199318962 197.75,49.60885915665008 253,49.60885915665008L253,51.06620845439323C197.75,51.06620845439323 197.75,88.43798129093277 142.5,88.43798129093277Z" style="stroke: rgb(68, 68, 68); stroke-opacity: 1; fill: rgb(175, 199, 120); fill-opacity: 0.2; stroke-width: 0; opacity: 1;"/><path class="sankey-link" d="M142.5,13.601634309885705C197.75,13.601634309885705 197.75,67.06620845439323 253,67.06620845439323L253,72.8421622641462C197.75,72.8421622641462 197.75,19.377588119638666 142.5,19.377588119638666Z" style="stroke: rgb(68, 68, 68); stroke-opacity: 1; fill: rgb(108, 145, 194); fill-opacity: 0.2; stroke-width: 0; opacity: 1;"/><path class="sankey-link" d="M142.5,4.618527782440651e-14C197.75,4.618527782440651e-14 197.75,31.535205053698828 253,31.535205053698828L253,45.136839363584485C197.75,45.136839363584485 197.75,13.601634309885705 142.5,13.601634309885705Z" style="stroke: rgb(68, 68, 68); stroke-opacity: 1; fill: rgb(175, 199, 120); fill-opacity: 0.2; stroke-width: 0; opacity: 1;"/><path class="sankey-link" d="M142.5,48.18106051617357C197.75,48.18106051617357 197.75,72.8421622641462 253,72.8421622641462L253,73.94335608668226C197.75,73.94335608668226 197.75,49.28225433870963 142.5,49.28225433870963Z" style="stroke: rgb(68, 68, 68); stroke-opacity: 1; fill: rgb(108, 145, 194); fill-opacity: 0.2; stroke-width: 0; opacity: 1;"/><path class="sankey-link" d="M142.5,45.645673532792856C197.75,45.645673532792856 197.75,45.136839363584485 253,45.136839363584485L253,47.67222634696519C197.75,47.67222634696519 197.75,48.18106051617356 142.5,48.18106051617356Z" style="stroke: rgb(68, 68, 68); stroke-opacity: 1; fill: rgb(175, 199, 120); fill-opacity: 0.2; stroke-width: 0; opacity: 1;"/><path class="sankey-link" d="M142.5,68.81238861526835C197.75,68.81238861526835 197.75,73.94335608668226 253,73.94335608668226L253,74.7753794806525C197.75,74.7753794806525 197.75,69.6444120092386 142.5,69.6444120092386Z" style="stroke: rgb(108, 145, 194); stroke-opacity: 0.2; fill: rgb(108, 145, 194); fill-opacity: 0.2; stroke-width: 1; opacity: 1;"/><path class="sankey-link" d="M142.5,66.87575580558347C197.75,66.87575580558347 197.75,47.672226346965196 253,47.672226346965196L253,49.60885915665008C197.75,49.60885915665008 197.75,68.81238861526835 142.5,68.81238861526835Z" style="stroke: rgb(68, 68, 68); stroke-opacity: 1; fill: rgb(175, 199, 120); fill-opacity: 0.2; stroke-width: 0; opacity: 1;"/></g><g class="sankey-node-set" style="cursor: move;"><g class="sankey-node" transform="translate(0.000,23.864)" style="opacity: 1;"><rect class="node-rect" width="16" height="33.30329392587515" style="stroke-width: 0; stroke: rgb(0, 0, 0); stroke-opacity: 0; fill: rgb(108, 145, 194); fill-opacity: 1;"/><text class="node-label" data-notex="1" x="0" y="0" text-anchor="start" transform="translate(19,9.526646962937576)" style="cursor: default; font-family: Arial, Helvetica, 'Microsoft YaHei'; font-size: 7.5px; fill: rgb(42, 63, 95); fill-opacity: 1; text-shadow: rgb(255, 255, 255) 1px 1px 1px, rgb(255, 255, 255) -1px -1px 1px, rgb(255, 255, 255) 1px -1px 1px, rgb(255, 255, 255) -1px 1px 1px; white-space: pre;"><tspan class="line" dy="0em" x="0" y="0">DC</tspan><tspan class="line" dy="1.3em" x="0" y="0">Cost Attribution</tspan><tspan class="line" dy="2.6em" x="0" y="0"> (1181.7)</tspan></text></g><g class="sankey-node" transform="translate(0.000,73.167)" style="opacity: 1;"><rect class="node-rect" width="16" height="8.696706074124847" style="stroke-width: 0; stroke: rgb(0, 0, 0); stroke-opacity: 0; fill: rgb(175, 199, 120); fill-opacity: 1;"/><text class="node-label" data-notex="1" x="0" y="0" text-anchor="start" transform="translate(19,-2.776646962937577)" style="cursor: default; font-family: Arial, Helvetica, 'Microsoft YaHei'; font-size: 7.5px; fill: rgb(42, 63, 95); fill-opacity: 1; text-shadow: rgb(255, 255, 255) 1px 1px 1px, rgb(255, 255, 255) -1px -1px 1px, rgb(255, 255, 255) 1px -1px 1px, rgb(255, 255, 255) -1px 1px 1px; white-space: pre;"><tspan class="line" dy="0em" x="0" y="0">Non-DC</tspan><tspan class="line" dy="1.3em" x="0" y="0">Cost Attribution</tspan><tspan class="line" dy="2.6em" x="0" y="0"> (308.6)</tspan></text></g><g class="sankey-node" transform="translate(126.500,86.981)" style="opacity: 1;"><rect class="node-rect" width="16" height="3.0193680068103816" style="stroke-width: 0; stroke: rgb(0, 0, 0); stroke-opacity: 0; fill: rgb(28, 139, 132); fill-opacity: 1;"/><text class="node-label" data-notex="1" x="0" y="0" text-anchor="start" transform="translate(19,4.134684003405191)" style="cursor: default; font-family: Arial, Helvetica, 'Microsoft YaHei'; font-size: 7.5px; fill: rgb(42, 63, 95); fill-opacity: 1; text-shadow: rgb(255, 255, 255) 1px 1px 1px, rgb(255, 255, 255) -1px -1px 1px, rgb(255, 255, 255) 1px -1px 1px, rgb(255, 255, 255) -1px 1px 1px; white-space: pre;">Houston (TX)</text></g><g class="sankey-node" transform="translate(126.500,0.000)" style="opacity: 1;"><rect class="node-rect" width="16" height="29.64567353279281" style="stroke-width: 0; stroke: rgb(0, 0, 0); stroke-opacity: 0; fill: rgb(78, 165, 159); fill-opacity: 1;"/><text class="node-label" data-notex="1" x="0" y="0" text-anchor="start" transform="translate(19,17.447836766396406)" style="cursor: default; font-family: Arial, Helvetica, 'Microsoft YaHei'; font-size: 7.5px; fill: rgb(42, 63, 95); fill-opacity: 1; text-shadow: rgb(255, 255, 255) 1px 1px 1px, rgb(255, 255, 255) -1px -1px 1px, rgb(255, 255, 255) 1px -1px 1px, rgb(255, 255, 255) -1px 1px 1px; white-space: pre;">North (TX)</text></g><g class="sankey-node" transform="translate(126.500,45.646)" style="opacity: 1;"><rect class="node-rect" width="16" height="5.230082272790611" style="stroke-width: 0; stroke: rgb(0, 0, 0); stroke-opacity: 0; fill: rgb(129, 191, 187); fill-opacity: 1;"/><text class="node-label" data-notex="1" x="0" y="0" text-anchor="start" transform="translate(19,5.240041136395305)" style="cursor: default; font-family: Arial, Helvetica, 'Microsoft YaHei'; font-size: 7.5px; fill: rgb(42, 63, 95); fill-opacity: 1; text-shadow: rgb(255, 255, 255) 1px 1px 1px, rgb(255, 255, 255) -1px -1px 1px, rgb(255, 255, 255) 1px -1px 1px, rgb(255, 255, 255) -1px 1px 1px; white-space: pre;">South (TX)</text></g><g class="sankey-node" transform="translate(126.500,66.876)" style="opacity: 1;"><rect class="node-rect" width="16" height="4.104876187606152" style="stroke-width: 0; stroke: rgb(0, 0, 0); stroke-opacity: 0; fill: rgb(179, 216, 214); fill-opacity: 1;"/><text class="node-label" data-notex="1" x="0" y="0" text-anchor="start" transform="translate(19,4.677438093803076)" style="cursor: default; font-family: Arial, Helvetica, 'Microsoft YaHei'; font-size: 7.5px; fill: rgb(42, 63, 95); fill-opacity: 1; text-shadow: rgb(255, 255, 255) 1px 1px 1px, rgb(255, 255, 255) -1px -1px 1px, rgb(255, 255, 255) 1px -1px 1px, rgb(255, 255, 255) -1px 1px 1px; white-space: pre;">West (TX)</text></g><g class="sankey-node" transform="translate(253.000,67.066)" style="opacity: 1;"><rect class="node-rect" width="16" height="8.286916526574402" style="stroke-width: 0; stroke: rgb(0, 0, 0); stroke-opacity: 0; fill: rgb(108, 145, 194); fill-opacity: 1;"/><text class="node-label" data-notex="1" x="0" y="0" text-anchor="end" transform="translate(-3,-2.9815417367128)" style="cursor: default; font-family: Arial, Helvetica, 'Microsoft YaHei'; font-size: 7.5px; fill: rgb(42, 63, 95); fill-opacity: 1; text-shadow: rgb(255, 255, 255) 1px 1px 1px, rgb(255, 255, 255) -1px -1px 1px, rgb(255, 255, 255) 1px -1px 1px, rgb(255, 255, 255) -1px 1px 1px; white-space: pre;"><tspan class="line" dy="0em" x="0" y="0">DC</tspan><tspan class="line" dy="1.3em" x="0" y="0">Cost Allocation</tspan><tspan class="line" dy="2.6em" x="0" y="0"> (294.1)</tspan></text></g><g class="sankey-node" transform="translate(253.000,31.535)" style="opacity: 1;"><rect class="node-rect" width="16" height="19.531003400694406" style="stroke-width: 0; stroke: rgb(0, 0, 0); stroke-opacity: 0; fill: rgb(175, 199, 120); fill-opacity: 1;"/><text class="node-label" data-notex="1" x="0" y="0" text-anchor="end" transform="translate(-3,2.640501700347202)" style="cursor: default; font-family: Arial, Helvetica, 'Microsoft YaHei'; font-size: 7.5px; fill: rgb(42, 63, 95); fill-opacity: 1; text-shadow: rgb(255, 255, 255) 1px 1px 1px, rgb(255, 255, 255) -1px -1px 1px, rgb(255, 255, 255) 1px -1px 1px, rgb(255, 255, 255) -1px 1px 1px; white-space: pre;"><tspan class="line" dy="0em" x="0" y="0">Residential User</tspan><tspan class="line" dy="1.3em" x="0" y="0">Cost Allocation</tspan><tspan class="line" dy="2.6em" x="0" y="0"> (693.0)</tspan></text></g></g></g><defs id="topdefs-0e9fd2"><g class="clips"/></defs><g class="layer-above"><g class="imagelayer"/><g class="shapelayer"/></g><g class="infolayer"><g class="g-gtitle"/><g class="first-render"/></g></svg>