<svg class="main-svg" xmlns="http://www.w3.org/2000/svg" xmlns:xlink="http://www.w3.org/1999/xlink" width="289" height="150" style="" viewBox="0 0 289 150"><rect x="0" y="0" width="289" height="150" style="fill: rgb(255, 255, 255); fill-opacity: 1;"/><defs id="defs-3ebeeb"><g class="clips"/><g class="gradients"/><g class="patterns"/></defs><g class="bglayer"/><g class="layer-below"><g class="imagelayer"/><g class="shapelayer"/></g><g class="cartesianlayer"/><g class="polarlayer"/><g class="smithlayer"/><g class="ternarylayer"/><g class="geolayer"/><g class="funnelarealayer"/><g class="pielayer"/><g class="iciclelayer"/><g class="treemaplayer"/><g class="sunburstlayer"/><g class="glimages"/><g class="sankey" transform="translate(10,30)matrix(1 0 0 1 0 0)" style="box-sizing: content-box; position: absolute; left: 0px; shape-rendering: geometricprecision; pointer-events: none;"><g class="sankey-links" style="fill: none;"><path class="sankey-link" d="M16,60.72409567176298C71.25,60.72409567176298 71.25,58.14907671246661 126.5,58.14907671246661L126.5,61.028976908410854C71.25,61.028976908410854 71.25,63.603995867707226 16,63.603995867707226Z" style="stroke: rgb(68, 68, 68); stroke-opacity: 1; fill: rgb(108, 145, 194); fill-opacity: 0.2; stroke-width: 0; opacity: 1;"/><path class="sankey-link" d="M16,63.60399586770721C71.25,63.60399586770721 71.25,77.02897690841087 126.5,77.02897690841087L126.5,83.3126861758274C71.25,83.3126861758274 71.25,69.88770513512374 16,69.88770513512374Z" style="stroke: rgb(68, 68, 68); stroke-opacity: 1; fill: rgb(108, 145, 194); fill-opacity: 0.2; stroke-width: 0; opacity: 1;"/><path class="sankey-link" d="M16,34.83266454278749C71.25,34.83266454278749 71.25,5.684341886080802e-14 126.5,5.684341886080802e-14L126.5,17.655063372081816C71.25,17.655063372081816 71.25,52.48772791486925 16,52.48772791486925Z" style="stroke: rgb(68, 68, 68); stroke-opacity: 1; fill: rgb(108, 145, 194); fill-opacity: 0.2; stroke-width: 0; opacity: 1;"/><path class="sankey-link" d="M16,52.487727914869254C71.25,52.487727914869254 71.25,33.91270895557289 126.5,33.91270895557289L126.5,42.149076712466616C71.25,42.149076712466616 71.25,60.72409567176298 16,60.72409567176298Z" style="stroke: rgb(68, 68, 68); stroke-opacity: 1; fill: rgb(108, 145, 194); fill-opacity: 0.2; stroke-width: 0; opacity: 1;"/><path class="sankey-link" d="M16,69.88770513512374C71.25,69.88770513512374 71.25,100.1893888322181 126.5,100.1893888322181L126.5,100.4931739168702C71.25,100.4931739168702 71.25,70.19149021977584 16,70.19149021977584Z" style="stroke: rgb(108, 145, 194); stroke-opacity: 0.2; fill: rgb(108, 145, 194); fill-opacity: 0.2; stroke-width: 1; opacity: 1;"/><path class="sankey-link" d="M16,86.44913580326691C71.25,86.44913580326691 71.25,83.3126861758274 126.5,83.3126861758274L126.5,84.18938883221813C71.25,84.18938883221813 71.25,87.32583845965765 16,87.32583845965765Z" style="stroke: rgb(175, 199, 120); stroke-opacity: 0.2; fill: rgb(175, 199, 120); fill-opacity: 0.2; stroke-width: 1; opacity: 1;"/><path class="sankey-link" d="M16,86.19149021977582C71.25,86.19149021977582 71.25,17.655063372081816 126.5,17.655063372081816L126.5,17.912708955572914C71.25,17.912708955572914 71.25,86.44913580326691 16,86.44913580326691Z" style="stroke: rgb(175, 199, 120); stroke-opacity: 0.2; fill: rgb(175, 199, 120); fill-opacity: 0.2; stroke-width: 1; opacity: 1;"/><path class="sankey-link" d="M16,87.32583845965766C71.25,87.32583845965766 71.25,100.49317391687022 126.5,100.49317391687022L126.5,110.00000000000001C71.25,110.00000000000001 71.25,96.83266454278746 16,96.83266454278746Z" style="stroke: rgb(68, 68, 68); stroke-opacity: 1; fill: rgb(175, 199, 120); fill-opacity: 0.2; stroke-width: 0; opacity: 1;"/><path class="sankey-link" d="M142.5,58.14907671246661C197.75,58.14907671246661 197.75,53.230742465094885 253,53.230742465094885L253,54.9756739938175C197.75,54.9756739938175 197.75,59.894008241189226 142.5,59.894008241189226Z" style="stroke: rgb(68, 68, 68); stroke-opacity: 1; fill: rgb(108, 145, 194); fill-opacity: 0.2; stroke-width: 0; opacity: 1;"/><path class="sankey-link" d="M142.5,59.894008241189226C197.75,59.894008241189226 197.75,84.52281019285311 253,84.52281019285311L253,85.56360612366737C197.75,85.56360612366737 197.75,60.93480417200348 142.5,60.93480417200348Z" style="stroke: rgb(68, 68, 68); stroke-opacity: 1; fill: rgb(175, 199, 120); fill-opacity: 0.2; stroke-width: 0; opacity: 1;"/><path class="sankey-link" d="M142.5,77.02897690841087C197.75,77.02897690841087 197.75,54.9756739938175 253,54.9756739938175L253,57.88085330620557C197.75,57.88085330620557 197.75,79.93415622079894 142.5,79.93415622079894Z" style="stroke: rgb(68, 68, 68); stroke-opacity: 1; fill: rgb(108, 145, 194); fill-opacity: 0.2; stroke-width: 0; opacity: 1;"/><path class="sankey-link" d="M142.5,79.93415622079894C197.75,79.93415622079894 197.75,85.56360612366737 253,85.56360612366737L253,87.9729039766224C197.75,87.9729039766224 197.75,82.34345407375397 142.5,82.34345407375397Z" style="stroke: rgb(68, 68, 68); stroke-opacity: 1; fill: rgb(175, 199, 120); fill-opacity: 0.2; stroke-width: 0; opacity: 1;"/><path class="sankey-link" d="M142.5,5.684341886080802e-14C197.75,5.684341886080802e-14 197.75,40.61008271714325 253,40.61008271714325L253,49.66155367948377C197.75,49.66155367948377 197.75,9.051470962340579 142.5,9.051470962340579Z" style="stroke: rgb(68, 68, 68); stroke-opacity: 1; fill: rgb(108, 145, 194); fill-opacity: 0.2; stroke-width: 0; opacity: 1;"/><path class="sankey-link" d="M142.5,9.051470962340579C197.75,9.051470962340579 197.75,75.65524167065999 253,75.65524167065999L253,81.26998029278431C197.75,81.26998029278431 197.75,14.666209584464893 142.5,14.666209584464893Z" style="stroke: rgb(68, 68, 68); stroke-opacity: 1; fill: rgb(175, 199, 120); fill-opacity: 0.2; stroke-width: 0; opacity: 1;"/><path class="sankey-link" d="M142.5,33.91270895557289C197.75,33.91270895557289 197.75,49.661553679483774 253,49.661553679483774L253,53.23074246509489C197.75,53.23074246509489 197.75,37.48189774118401 142.5,37.48189774118401Z" style="stroke: rgb(68, 68, 68); stroke-opacity: 1; fill: rgb(108, 145, 194); fill-opacity: 0.2; stroke-width: 0; opacity: 1;"/><path class="sankey-link" d="M142.5,37.481897741184C197.75,37.481897741184 197.75,81.2699802927843 253,81.2699802927843L253,84.52281019285313C197.75,84.52281019285313 197.75,40.73472764125282 142.5,40.73472764125282Z" style="stroke: rgb(68, 68, 68); stroke-opacity: 1; fill: rgb(175, 199, 120); fill-opacity: 0.2; stroke-width: 0; opacity: 1;"/><path class="sankey-link" d="M142.5,100.1893888322181C197.75,100.1893888322181 197.75,57.88085330620558 253,57.88085330620558L253,59.65524167066002C197.75,59.65524167066002 197.75,101.96377719667254 142.5,101.96377719667254Z" style="stroke: rgb(68, 68, 68); stroke-opacity: 1; fill: rgb(108, 145, 194); fill-opacity: 0.2; stroke-width: 0; opacity: 1;"/><path class="sankey-link" d="M142.5,101.96377719667254C197.75,101.96377719667254 197.75,87.97290397662239 253,87.97290397662239L253,91.37893382159608C197.75,91.37893382159608 197.75,105.36980704164623 142.5,105.36980704164623Z" style="stroke: rgb(68, 68, 68); stroke-opacity: 1; fill: rgb(175, 199, 120); fill-opacity: 0.2; stroke-width: 0; opacity: 1;"/></g><g class="sankey-node-set" style="cursor: move;"><g class="sankey-node" transform="translate(0.000,34.833)" style="opacity: 1;"><rect class="node-rect" width="16" height="35.358825676988324" style="stroke-width: 0; stroke: rgb(0, 0, 0); stroke-opacity: 0; fill: rgb(108, 145, 194); fill-opacity: 1;"/><text class="node-label" data-notex="1" x="0" y="0" text-anchor="start" transform="translate(19,10.554412838494162)" style="cursor: default; font-family: Arial, Helvetica, 'Microsoft YaHei'; font-size: 7.5px; fill: rgb(42, 63, 95); fill-opacity: 1; text-shadow: rgb(255, 255, 255) 1px 1px 1px, rgb(255, 255, 255) -1px -1px 1px, rgb(255, 255, 255) 1px -1px 1px, rgb(255, 255, 255) -1px 1px 1px; white-space: pre;"><tspan class="line" dy="0em" x="0" y="0">DC</tspan><tspan class="line" dy="1.3em" x="0" y="0">Cost Attribution</tspan><tspan class="line" dy="2.6em" x="0" y="0"> (700.4)</tspan></text></g><g class="sankey-node" transform="translate(0.000,86.191)" style="opacity: 1;"><rect class="node-rect" width="16" height="10.641174323011626" style="stroke-width: 0; stroke: rgb(0, 0, 0); stroke-opacity: 0; fill: rgb(175, 199, 120); fill-opacity: 1;"/><text class="node-label" data-notex="1" x="0" y="0" text-anchor="start" transform="translate(19,-1.804412838494188)" style="cursor: default; font-family: Arial, Helvetica, 'Microsoft YaHei'; font-size: 7.5px; fill: rgb(42, 63, 95); fill-opacity: 1; text-shadow: rgb(255, 255, 255) 1px 1px 1px, rgb(255, 255, 255) -1px -1px 1px, rgb(255, 255, 255) 1px -1px 1px, rgb(255, 255, 255) -1px 1px 1px; white-space: pre;"><tspan class="line" dy="0em" x="0" y="0">Non-DC</tspan><tspan class="line" dy="1.3em" x="0" y="0">Cost Attribution</tspan><tspan class="line" dy="2.6em" x="0" y="0"> (210.8)</tspan></text></g><g class="sankey-node" transform="translate(126.500,58.149)" style="opacity: 1;"><rect class="node-rect" width="16" height="2.879900195944259" style="stroke-width: 0; stroke: rgb(0, 0, 0); stroke-opacity: 0; fill: rgb(249, 154, 72); fill-opacity: 1;"/><text class="node-label" data-notex="1" x="0" y="0" text-anchor="start" transform="translate(19,4.06495009797213)" style="cursor: default; font-family: Arial, Helvetica, 'Microsoft YaHei'; font-size: 7.5px; fill: rgb(42, 63, 95); fill-opacity: 1; text-shadow: rgb(255, 255, 255) 1px 1px 1px, rgb(255, 255, 255) -1px -1px 1px, rgb(255, 255, 255) 1px -1px 1px, rgb(255, 255, 255) -1px 1px 1px; white-space: pre;">LRZ 1 (MN)</text></g><g class="sankey-node" transform="translate(126.500,77.029)" style="opacity: 1;"><rect class="node-rect" width="16" height="7.1604119238072315" style="stroke-width: 0; stroke: rgb(0, 0, 0); stroke-opacity: 0; fill: rgb(250, 171, 102); fill-opacity: 1;"/><text class="node-label" data-notex="1" x="0" y="0" text-anchor="start" transform="translate(19,1.3302059619036153)" style="cursor: default; font-family: Arial, Helvetica, 'Microsoft YaHei'; font-size: 7.5px; fill: rgb(42, 63, 95); fill-opacity: 1; text-shadow: rgb(255, 255, 255) 1px 1px 1px, rgb(255, 255, 255) -1px -1px 1px, rgb(255, 255, 255) 1px -1px 1px, rgb(255, 255, 255) -1px 1px 1px; white-space: pre;"><tspan class="line" dy="0em" x="0" y="0">LRZ 2,7</tspan><tspan class="line" dy="1.3em" x="0" y="0">(MI,WI)</tspan></text></g><g class="sankey-node" transform="translate(126.500,0.000)" style="opacity: 1;"><rect class="node-rect" width="16" height="17.912708955572832" style="stroke-width: 0; stroke: rgb(0, 0, 0); stroke-opacity: 0; fill: rgb(251, 187, 133); fill-opacity: 1;"/><text class="node-label" data-notex="1" x="0" y="0" text-anchor="start" transform="translate(19,11.581354477786416)" style="cursor: default; font-family: Arial, Helvetica, 'Microsoft YaHei'; font-size: 7.5px; fill: rgb(42, 63, 95); fill-opacity: 1; text-shadow: rgb(255, 255, 255) 1px 1px 1px, rgb(255, 255, 255) -1px -1px 1px, rgb(255, 255, 255) 1px -1px 1px, rgb(255, 255, 255) -1px 1px 1px; white-space: pre;">LRZ 3,5 (IA)</text></g><g class="sankey-node" transform="translate(126.500,33.913)" style="opacity: 1;"><rect class="node-rect" width="16" height="8.23636775689372" style="stroke-width: 0; stroke: rgb(0, 0, 0); stroke-opacity: 0; fill: rgb(252, 204, 163); fill-opacity: 1;"/><text class="node-label" data-notex="1" x="0" y="0" text-anchor="start" transform="translate(19,6.74318387844686)" style="cursor: default; font-family: Arial, Helvetica, 'Microsoft YaHei'; font-size: 7.5px; fill: rgb(42, 63, 95); fill-opacity: 1; text-shadow: rgb(255, 255, 255) 1px 1px 1px, rgb(255, 255, 255) -1px -1px 1px, rgb(255, 255, 255) 1px -1px 1px, rgb(255, 255, 255) -1px 1px 1px; white-space: pre;">LRZ 6 (IN)</text></g><g class="sankey-node" transform="translate(126.500,100.189)" style="opacity: 1;"><rect class="node-rect" width="16" height="9.8106111677819" style="stroke-width: 0; stroke: rgb(0, 0, 0); stroke-opacity: 0; fill: rgb(253, 221, 194); fill-opacity: 1;"/><text class="node-label" data-notex="1" x="0" y="0" text-anchor="start" transform="translate(19,2.6553055838909496)" style="cursor: default; font-family: Arial, Helvetica, 'Microsoft YaHei'; font-size: 7.5px; fill: rgb(42, 63, 95); fill-opacity: 1; text-shadow: rgb(255, 255, 255) 1px 1px 1px, rgb(255, 255, 255) -1px -1px 1px, rgb(255, 255, 255) 1px -1px 1px, rgb(255, 255, 255) -1px 1px 1px; white-space: pre;"><tspan class="line" dy="0em" x="0" y="0">LRZ 8,9,10</tspan><tspan class="line" dy="1.3em" x="0" y="0">(LA,MS)</tspan></text></g><g class="sankey-node" transform="translate(253.000,40.610)" style="opacity: 1;"><rect class="node-rect" width="16" height="19.045158953516733" style="stroke-width: 0; stroke: rgb(0, 0, 0); stroke-opacity: 0; fill: rgb(108, 145, 194); fill-opacity: 1;"/><text class="node-label" data-notex="1" x="0" y="0" text-anchor="end" transform="translate(-3,2.3975794767583656)" style="cursor: default; font-family: Arial, Helvetica, 'Microsoft YaHei'; font-size: 7.5px; fill: rgb(42, 63, 95); fill-opacity: 1; text-shadow: rgb(255, 255, 255) 1px 1px 1px, rgb(255, 255, 255) -1px -1px 1px, rgb(255, 255, 255) 1px -1px 1px, rgb(255, 255, 255) -1px 1px 1px; white-space: pre;"><tspan class="line" dy="0em" x="0" y="0">DC</tspan><tspan class="line" dy="1.3em" x="0" y="0">Cost Allocation</tspan><tspan class="line" dy="2.6em" x="0" y="0"> (377.3)</tspan></text></g><g class="sankey-node" transform="translate(253.000,75.655)" style="opacity: 1;"><rect class="node-rect" width="16" height="15.723692150936074" style="stroke-width: 0; stroke: rgb(0, 0, 0); stroke-opacity: 0; fill: rgb(175, 199, 120); fill-opacity: 1;"/><text class="node-label" data-notex="1" x="0" y="0" text-anchor="end" transform="translate(-3,0.7368460754680362)" style="cursor: default; font-family: Arial, Helvetica, 'Microsoft YaHei'; font-size: 7.5px; fill: rgb(42, 63, 95); fill-opacity: 1; text-shadow: rgb(255, 255, 255) 1px 1px 1px, rgb(255, 255, 255) -1px -1px 1px, rgb(255, 255, 255) 1px -1px 1px, rgb(255, 255, 255) -1px 1px 1px; white-space: pre;"><tspan class="line" dy="0em" x="0" y="0">Residential User</tspan><tspan class="line" dy="1.3em" x="0" y="0">Cost Allocation</tspan><tspan class="line" dy="2.6em" x="0" y="0"> (311.5)</tspan></text></g></g></g><defs id="topdefs-3ebeeb"><g class="clips"/></defs><g class="layer-above"><g class="imagelayer"/><g class="shapelayer"/></g><g class="infolayer"><g class="g-gtitle"/><g class="first-render"/></g></svg>