<svg class="main-svg" xmlns="http://www.w3.org/2000/svg" xmlns:xlink="http://www.w3.org/1999/xlink" width="289" height="150" style="" viewBox="0 0 289 150"><rect x="0" y="0" width="289" height="150" style="fill: rgb(255, 255, 255); fill-opacity: 1;"/><defs id="defs-090653"><g class="clips"/><g class="gradients"/><g class="patterns"/></defs><g class="bglayer"/><g class="layer-below"><g class="imagelayer"/><g class="shapelayer"/></g><g class="cartesianlayer"/><g class="polarlayer"/><g class="smithlayer"/><g class="ternarylayer"/><g class="geolayer"/><g class="funnelarealayer"/><g class="pielayer"/><g class="iciclelayer"/><g class="treemaplayer"/><g class="sunburstlayer"/><g class="glimages"/><g class="sankey" transform="translate(10,30)matrix(1 0 0 1 0 0)" style="box-sizing: content-box; position: absolute; left: 0px; shape-rendering: geometricprecision; pointer-events: none;"><g class="sankey-links" style="fill: none;"><path class="sankey-link" d="M16,66.46477395794565C71.25,66.46477395794565 71.25,59.16474834277531 126.5,59.16474834277531L126.5,61.40225443672321C71.25,61.40225443672321 71.25,68.70228005189355 16,68.70228005189355Z" style="stroke: rgb(68, 68, 68); stroke-opacity: 1; fill: rgb(108, 145, 194); fill-opacity: 0.2; stroke-width: 0; opacity: 1;"/><path class="sankey-link" d="M16,68.70228005189355C71.25,68.70228005189355 71.25,78.176606295928 126.5,78.176606295928L126.5,81.83517843912514C71.25,81.83517843912514 71.25,72.3608521950907 16,72.3608521950907Z" style="stroke: rgb(68, 68, 68); stroke-opacity: 1; fill: rgb(108, 145, 194); fill-opacity: 0.2; stroke-width: 0; opacity: 1;"/><path class="sankey-link" d="M16,47.99999999999999C71.25,47.99999999999999 71.25,-2.1316282072803006e-14 126.5,-2.1316282072803006e-14L126.5,7.148895769583558C71.25,7.148895769583558 71.25,55.14889576958357 16,55.14889576958357Z" style="stroke: rgb(68, 68, 68); stroke-opacity: 1; fill: rgb(108, 145, 194); fill-opacity: 0.2; stroke-width: 0; opacity: 1;"/><path class="sankey-link" d="M16,72.36085219509069C71.25,72.36085219509069 71.25,102.03204322903585 126.5,102.03204322903585L126.5,105.18373984748749C71.25,105.18373984748749 71.25,75.51254881354232 16,75.51254881354232Z" style="stroke: rgb(68, 68, 68); stroke-opacity: 1; fill: rgb(108, 145, 194); fill-opacity: 0.2; stroke-width: 0; opacity: 1;"/><path class="sankey-link" d="M16,55.148895769583575C71.25,55.148895769583575 71.25,25.56194043610904 126.5,25.56194043610904L126.5,36.87781862447111C71.25,36.87781862447111 71.25,66.46477395794564 16,66.46477395794564Z" style="stroke: rgb(68, 68, 68); stroke-opacity: 1; fill: rgb(108, 145, 194); fill-opacity: 0.2; stroke-width: 0; opacity: 1;"/><path class="sankey-link" d="M16,100.212523198372C71.25,100.212523198372 71.25,61.402254436723204 126.5,61.402254436723204L126.5,62.17660629592799C71.25,62.17660629592799 71.25,100.98687505757678 16,100.98687505757678Z" style="stroke: rgb(175, 199, 120); stroke-opacity: 0.2; fill: rgb(175, 199, 120); fill-opacity: 0.2; stroke-width: 1; opacity: 1;"/><path class="sankey-link" d="M16,100.98687505757678C71.25,100.98687505757678 71.25,81.83517843912513 126.5,81.83517843912513L126.5,86.03204322903584C71.25,86.03204322903584 71.25,105.18373984748749 16,105.18373984748749Z" style="stroke: rgb(68, 68, 68); stroke-opacity: 1; fill: rgb(175, 199, 120); fill-opacity: 0.2; stroke-width: 0; opacity: 1;"/><path class="sankey-link" d="M16,91.51254881354231C71.25,91.51254881354231 71.25,7.148895769583559 126.5,7.148895769583559L126.5,9.561940436109046C71.25,9.561940436109046 71.25,93.92559348006779 16,93.92559348006779Z" style="stroke: rgb(68, 68, 68); stroke-opacity: 1; fill: rgb(175, 199, 120); fill-opacity: 0.2; stroke-width: 0; opacity: 1;"/><path class="sankey-link" d="M16,105.18373984748747C71.25,105.18373984748747 71.25,105.18373984748749 126.5,105.18373984748749L126.5,110.00000000000003C71.25,110.00000000000003 71.25,110.00000000000001 16,110.00000000000001Z" style="stroke: rgb(68, 68, 68); stroke-opacity: 1; fill: rgb(175, 199, 120); fill-opacity: 0.2; stroke-width: 0; opacity: 1;"/><path class="sankey-link" d="M16,93.9255934800678C71.25,93.9255934800678 71.25,36.87781862447111 126.5,36.87781862447111L126.5,43.164748342775304C71.25,43.164748342775304 71.25,100.21252319837198 16,100.21252319837198Z" style="stroke: rgb(68, 68, 68); stroke-opacity: 1; fill: rgb(175, 199, 120); fill-opacity: 0.2; stroke-width: 0; opacity: 1;"/><path class="sankey-link" d="M142.5,59.16474834277531C197.75,59.16474834277531 197.75,66.9882864054039 253,66.9882864054039L253,68.7083584824494C197.75,68.7083584824494 197.75,60.8848204198208 142.5,60.8848204198208Z" style="stroke: rgb(68, 68, 68); stroke-opacity: 1; fill: rgb(108, 145, 194); fill-opacity: 0.2; stroke-width: 0; opacity: 1;"/><path class="sankey-link" d="M142.5,60.884820419820805C197.75,60.884820419820805 197.75,101.99206828038831 253,101.99206828038831L253,103.20916007925732C197.75,103.20916007925732 197.75,62.1019122186898 142.5,62.1019122186898Z" style="stroke: rgb(68, 68, 68); stroke-opacity: 1; fill: rgb(175, 199, 120); fill-opacity: 0.2; stroke-width: 0; opacity: 1;"/><path class="sankey-link" d="M142.5,78.176606295928C197.75,78.176606295928 197.75,68.70835848244938 253,68.70835848244938L253,71.96884555837438C197.75,71.96884555837438 197.75,81.437093371853 142.5,81.437093371853Z" style="stroke: rgb(68, 68, 68); stroke-opacity: 1; fill: rgb(108, 145, 194); fill-opacity: 0.2; stroke-width: 0; opacity: 1;"/><path class="sankey-link" d="M142.5,81.437093371853C197.75,81.437093371853 197.75,103.2091600792573 253,103.2091600792573L253,105.6994746358656C197.75,105.6994746358656 197.75,83.92740792846129 142.5,83.92740792846129Z" style="stroke: rgb(68, 68, 68); stroke-opacity: 1; fill: rgb(175, 199, 120); fill-opacity: 0.2; stroke-width: 0; opacity: 1;"/><path class="sankey-link" d="M142.5,-2.1316282072803006e-14C197.75,-2.1316282072803006e-14 197.75,57.17322842058885 253,57.17322842058885L253,62.264176785670806C197.75,62.264176785670806 197.75,5.090948365081936 142.5,5.090948365081936Z" style="stroke: rgb(68, 68, 68); stroke-opacity: 1; fill: rgb(108, 145, 194); fill-opacity: 0.2; stroke-width: 0; opacity: 1;"/><path class="sankey-link" d="M142.5,5.090948365081935C197.75,5.090948365081935 197.75,90.8696599004116 253,90.8696599004116L253,93.71221220984519C197.75,93.71221220984519 197.75,7.9335006745155106 142.5,7.9335006745155106Z" style="stroke: rgb(68, 68, 68); stroke-opacity: 1; fill: rgb(175, 199, 120); fill-opacity: 0.2; stroke-width: 0; opacity: 1;"/><path class="sankey-link" d="M142.5,102.03204322903585C197.75,102.03204322903585 197.75,71.96884555837438 253,71.96884555837438L253,74.8696599004116C197.75,74.8696599004116 197.75,104.93285757107307 142.5,104.93285757107307Z" style="stroke: rgb(68, 68, 68); stroke-opacity: 1; fill: rgb(108, 145, 194); fill-opacity: 0.2; stroke-width: 0; opacity: 1;"/><path class="sankey-link" d="M142.5,104.93285757107307C197.75,104.93285757107307 197.75,105.69947463586558 253,105.69947463586558L253,109.13023778273964C197.75,109.13023778273964 197.75,108.36362071794713 142.5,108.36362071794713Z" style="stroke: rgb(68, 68, 68); stroke-opacity: 1; fill: rgb(175, 199, 120); fill-opacity: 0.2; stroke-width: 0; opacity: 1;"/><path class="sankey-link" d="M142.5,25.56194043610904C197.75,25.56194043610904 197.75,62.2641767856708 253,62.2641767856708L253,66.9882864054039C197.75,66.9882864054039 197.75,30.286050055842132 142.5,30.286050055842132Z" style="stroke: rgb(68, 68, 68); stroke-opacity: 1; fill: rgb(108, 145, 194); fill-opacity: 0.2; stroke-width: 0; opacity: 1;"/><path class="sankey-link" d="M142.5,30.28605005584213C197.75,30.28605005584213 197.75,93.71221220984518 253,93.71221220984518L253,101.99206828038831C197.75,101.99206828038831 197.75,38.565906126385265 142.5,38.565906126385265Z" style="stroke: rgb(68, 68, 68); stroke-opacity: 1; fill: rgb(175, 199, 120); fill-opacity: 0.2; stroke-width: 0; opacity: 1;"/></g><g class="sankey-node-set" style="cursor: move;"><g class="sankey-node" transform="translate(0.000,48.000)" style="opacity: 1;"><rect class="node-rect" width="16" height="27.512548813542317" style="stroke-width: 0; stroke: rgb(0, 0, 0); stroke-opacity: 0; fill: rgb(108, 145, 194); fill-opacity: 1;"/><text class="node-label" data-notex="1" x="0" y="0" text-anchor="start" transform="translate(19,6.6312744067711575)" style="cursor: default; font-family: Arial, Helvetica, 'Microsoft YaHei'; font-size: 7.5px; fill: rgb(42, 63, 95); fill-opacity: 1; text-shadow: rgb(255, 255, 255) 1px 1px 1px, rgb(255, 255, 255) -1px -1px 1px, rgb(255, 255, 255) 1px -1px 1px, rgb(255, 255, 255) -1px 1px 1px; white-space: pre;"><tspan class="line" dy="0em" x="0" y="0">DC</tspan><tspan class="line" dy="1.3em" x="0" y="0">Cost Attribution</tspan><tspan class="line" dy="2.6em" x="0" y="0"> (3559.7)</tspan></text></g><g class="sankey-node" transform="translate(0.000,91.513)" style="opacity: 1;"><rect class="node-rect" width="16" height="18.48745118645769" style="stroke-width: 0; stroke: rgb(0, 0, 0); stroke-opacity: 0; fill: rgb(175, 199, 120); fill-opacity: 1;"/><text class="node-label" data-notex="1" x="0" y="0" text-anchor="start" transform="translate(19,2.1187255932288442)" style="cursor: default; font-family: Arial, Helvetica, 'Microsoft YaHei'; font-size: 7.5px; fill: rgb(42, 63, 95); fill-opacity: 1; text-shadow: rgb(255, 255, 255) 1px 1px 1px, rgb(255, 255, 255) -1px -1px 1px, rgb(255, 255, 255) 1px -1px 1px, rgb(255, 255, 255) -1px 1px 1px; white-space: pre;"><tspan class="line" dy="0em" x="0" y="0">Non-DC</tspan><tspan class="line" dy="1.3em" x="0" y="0">Cost Attribution</tspan><tspan class="line" dy="2.6em" x="0" y="0"> (2392.0)</tspan></text></g><g class="sankey-node" transform="translate(126.500,59.165)" style="opacity: 1;"><rect class="node-rect" width="16" height="3.011857953152685" style="stroke-width: 0; stroke: rgb(0, 0, 0); stroke-opacity: 0; fill: rgb(249, 154, 72); fill-opacity: 1;"/><text class="node-label" data-notex="1" x="0" y="0" text-anchor="start" transform="translate(19,4.130928976576342)" style="cursor: default; font-family: Arial, Helvetica, 'Microsoft YaHei'; font-size: 7.5px; fill: rgb(42, 63, 95); fill-opacity: 1; text-shadow: rgb(255, 255, 255) 1px 1px 1px, rgb(255, 255, 255) -1px -1px 1px, rgb(255, 255, 255) 1px -1px 1px, rgb(255, 255, 255) -1px 1px 1px; white-space: pre;">LRZ 1 (MN)</text></g><g class="sankey-node" transform="translate(126.500,78.177)" style="opacity: 1;"><rect class="node-rect" width="16" height="7.855436933107853" style="stroke-width: 0; stroke: rgb(0, 0, 0); stroke-opacity: 0; fill: rgb(250, 171, 102); fill-opacity: 1;"/><text class="node-label" data-notex="1" x="0" y="0" text-anchor="start" transform="translate(19,1.6777184665539262)" style="cursor: default; font-family: Arial, Helvetica, 'Microsoft YaHei'; font-size: 7.5px; fill: rgb(42, 63, 95); fill-opacity: 1; text-shadow: rgb(255, 255, 255) 1px 1px 1px, rgb(255, 255, 255) -1px -1px 1px, rgb(255, 255, 255) 1px -1px 1px, rgb(255, 255, 255) -1px 1px 1px; white-space: pre;"><tspan class="line" dy="0em" x="0" y="0">LRZ 2,7</tspan><tspan class="line" dy="1.3em" x="0" y="0">(MI,WI)</tspan></text></g><g class="sankey-node" transform="translate(126.500,-0.000)" style="opacity: 1;"><rect class="node-rect" width="16" height="9.561940436109055" style="stroke-width: 0; stroke: rgb(0, 0, 0); stroke-opacity: 0; fill: rgb(251, 187, 133); fill-opacity: 1;"/><text class="node-label" data-notex="1" x="0" y="0" text-anchor="start" transform="translate(19,7.405970218054527)" style="cursor: default; font-family: Arial, Helvetica, 'Microsoft YaHei'; font-size: 7.5px; fill: rgb(42, 63, 95); fill-opacity: 1; text-shadow: rgb(255, 255, 255) 1px 1px 1px, rgb(255, 255, 255) -1px -1px 1px, rgb(255, 255, 255) 1px -1px 1px, rgb(255, 255, 255) -1px 1px 1px; white-space: pre;">LRZ 3,5 (IA)</text></g><g class="sankey-node" transform="translate(126.500,102.032)" style="opacity: 1;"><rect class="node-rect" width="16" height="7.96795677096415" style="stroke-width: 0; stroke: rgb(0, 0, 0); stroke-opacity: 0; fill: rgb(252, 204, 163); fill-opacity: 1;"/><text class="node-label" data-notex="1" x="0" y="0" text-anchor="start" transform="translate(19,6.608978385482075)" style="cursor: default; font-family: Arial, Helvetica, 'Microsoft YaHei'; font-size: 7.5px; fill: rgb(42, 63, 95); fill-opacity: 1; text-shadow: rgb(255, 255, 255) 1px 1px 1px, rgb(255, 255, 255) -1px -1px 1px, rgb(255, 255, 255) 1px -1px 1px, rgb(255, 255, 255) -1px 1px 1px; white-space: pre;">LRZ 6 (IN)</text></g><g class="sankey-node" transform="translate(126.500,25.562)" style="opacity: 1;"><rect class="node-rect" width="16" height="17.60280790666627" style="stroke-width: 0; stroke: rgb(0, 0, 0); stroke-opacity: 0; fill: rgb(253, 221, 194); fill-opacity: 1;"/><text class="node-label" data-notex="1" x="0" y="0" text-anchor="start" transform="translate(19,6.551403953333136)" style="cursor: default; font-family: Arial, Helvetica, 'Microsoft YaHei'; font-size: 7.5px; fill: rgb(42, 63, 95); fill-opacity: 1; text-shadow: rgb(255, 255, 255) 1px 1px 1px, rgb(255, 255, 255) -1px -1px 1px, rgb(255, 255, 255) 1px -1px 1px, rgb(255, 255, 255) -1px 1px 1px; white-space: pre;"><tspan class="line" dy="0em" x="0" y="0">LRZ 8,9,10</tspan><tspan class="line" dy="1.3em" x="0" y="0">(LA,MS)</tspan></text></g><g class="sankey-node" transform="translate(253.000,57.173)" style="opacity: 1;"><rect class="node-rect" width="16" height="17.696431479822756" style="stroke-width: 0; stroke: rgb(0, 0, 0); stroke-opacity: 0; fill: rgb(108, 145, 194); fill-opacity: 1;"/><text class="node-label" data-notex="1" x="0" y="0" text-anchor="end" transform="translate(-3,1.7232157399113772)" style="cursor: default; font-family: Arial, Helvetica, 'Microsoft YaHei'; font-size: 7.5px; fill: rgb(42, 63, 95); fill-opacity: 1; text-shadow: rgb(255, 255, 255) 1px 1px 1px, rgb(255, 255, 255) -1px -1px 1px, rgb(255, 255, 255) 1px -1px 1px, rgb(255, 255, 255) -1px 1px 1px; white-space: pre;"><tspan class="line" dy="0em" x="0" y="0">DC</tspan><tspan class="line" dy="1.3em" x="0" y="0">Cost Allocation</tspan><tspan class="line" dy="2.6em" x="0" y="0"> (2289.7)</tspan></text></g><g class="sankey-node" transform="translate(253.000,90.870)" style="opacity: 1;"><rect class="node-rect" width="16" height="18.260577882328022" style="stroke-width: 0; stroke: rgb(0, 0, 0); stroke-opacity: 0; fill: rgb(175, 199, 120); fill-opacity: 1;"/><text class="node-label" data-notex="1" x="0" y="0" text-anchor="end" transform="translate(-3,2.00528894116401)" style="cursor: default; font-family: Arial, Helvetica, 'Microsoft YaHei'; font-size: 7.5px; fill: rgb(42, 63, 95); fill-opacity: 1; text-shadow: rgb(255, 255, 255) 1px 1px 1px, rgb(255, 255, 255) -1px -1px 1px, rgb(255, 255, 255) 1px -1px 1px, rgb(255, 255, 255) -1px 1px 1px; white-space: pre;"><tspan class="line" dy="0em" x="0" y="0">Residential User</tspan><tspan class="line" dy="1.3em" x="0" y="0">Cost Allocation</tspan><tspan class="line" dy="2.6em" x="0" y="0"> (2362.7)</tspan></text></g></g></g><defs id="topdefs-090653"><g class="clips"/></defs><g class="layer-above"><g class="imagelayer"/><g class="shapelayer"/></g><g class="infolayer"><g class="g-gtitle"/><g class="first-render"/></g></svg>