<svg class="main-svg" xmlns="http://www.w3.org/2000/svg" xmlns:xlink="http://www.w3.org/1999/xlink" width="289" height="320" style="" viewBox="0 0 289 320"><rect x="0" y="0" width="289" height="320" style="fill: rgb(255, 255, 255); fill-opacity: 1;"/><defs id="defs-82845a"><g class="clips"/><g class="gradients"/><g class="patterns"/></defs><g class="bglayer"/><g class="layer-below"><g class="imagelayer"/><g class="shapelayer"/></g><g class="cartesianlayer"/><g class="polarlayer"/><g class="smithlayer"/><g class="ternarylayer"/><g class="geolayer"/><g class="funnelarealayer"/><g class="pielayer"/><g class="iciclelayer"/><g class="treemaplayer"/><g class="sunburstlayer"/><g class="glimages"/><g class="sankey" transform="translate(10,30)matrix(1 0 0 1 0 0)" style="box-sizing: content-box; position: absolute; left: 0px; shape-rendering: geometricprecision; pointer-events: none;"><g class="sankey-links" style="fill: none;"><path class="sankey-link" d="M16,132.89138706026995C71.25,132.89138706026995 71.25,261.8999372574466 126.5,261.8999372574466L126.5,261.9116718672442C71.25,261.9116718672442 71.25,132.9031216700675 16,132.9031216700675Z" style="stroke: rgb(108, 145, 194); stroke-opacity: 0.2; fill: rgb(108, 145, 194); fill-opacity: 0.2; stroke-width: 1; opacity: 1;"/><path class="sankey-link" d="M16,92.8214846380969C71.25,92.8214846380969 71.25,41.634369912692634 126.5,41.634369912692634L126.5,67.57414728665633C71.25,67.57414728665633 71.25,118.7612620120606 16,118.7612620120606Z" style="stroke: rgb(68, 68, 68); stroke-opacity: 1; fill: rgb(108, 145, 194); fill-opacity: 0.2; stroke-width: 0; opacity: 1;"/><path class="sankey-link" d="M16,132.90312167006752C71.25,132.90312167006752 71.25,275.64795727498756 126.5,275.64795727498756L126.5,276.0171455283239C71.25,276.0171455283239 71.25,133.27230992340387 16,133.27230992340387Z" style="stroke: rgb(108, 145, 194); stroke-opacity: 0.2; fill: rgb(108, 145, 194); fill-opacity: 0.2; stroke-width: 1; opacity: 1;"/><path class="sankey-link" d="M16,127.48639874721968C71.25,127.48639874721968 71.25,181.65545508923975 126.5,181.65545508923975L126.5,183.7332470382761C71.25,183.7332470382761 71.25,129.56419069625602 16,129.56419069625602Z" style="stroke: rgb(68, 68, 68); stroke-opacity: 1; fill: rgb(108, 145, 194); fill-opacity: 0.2; stroke-width: 0; opacity: 1;"/><path class="sankey-link" d="M16,132.69837683769293C71.25,132.69837683769293 71.25,250.51207753096088 126.5,250.51207753096088L126.5,250.7050877535379C71.25,250.7050877535379 71.25,132.89138706026995 16,132.89138706026995Z" style="stroke: rgb(108, 145, 194); stroke-opacity: 0.2; fill: rgb(108, 145, 194); fill-opacity: 0.2; stroke-width: 1; opacity: 1;"/><path class="sankey-link" d="M16,118.7612620120606C71.25,118.7612620120606 71.25,78.67911473192333 126.5,78.67911473192333L126.5,78.77752206092194C71.25,78.77752206092194 71.25,118.8596693410592 16,118.8596693410592Z" style="stroke: rgb(108, 145, 194); stroke-opacity: 0.2; fill: rgb(108, 145, 194); fill-opacity: 0.2; stroke-width: 1; opacity: 1;"/><path class="sankey-link" d="M16,127.45706222272575C71.25,127.45706222272575 71.25,160.88334157887465 126.5,160.88334157887465L126.5,160.8987154031031C71.25,160.8987154031031 71.25,127.4724360469542 16,127.4724360469542Z" style="stroke: rgb(108, 145, 194); stroke-opacity: 0.2; fill: rgb(108, 145, 194); fill-opacity: 0.2; stroke-width: 1; opacity: 1;"/><path class="sankey-link" d="M16,118.90103755407972C71.25,118.90103755407972 71.25,109.93970319096621 126.5,109.93970319096621L126.5,109.96332094992587C71.25,109.96332094992587 71.25,118.92465531303938 16,118.92465531303938Z" style="stroke: rgb(108, 145, 194); stroke-opacity: 0.2; fill: rgb(108, 145, 194); fill-opacity: 0.2; stroke-width: 1; opacity: 1;"/><path class="sankey-link" d="M16,63.5866705195698C71.25,63.5866705195698 71.25,-9.237055564881302e-14 126.5,-9.237055564881302e-14L126.5,29.234814118527C71.25,29.234814118527 71.25,92.82148463809689 16,92.82148463809689Z" style="stroke: rgb(68, 68, 68); stroke-opacity: 1; fill: rgb(108, 145, 194); fill-opacity: 0.2; stroke-width: 0; opacity: 1;"/><path class="sankey-link" d="M16,132.6792895293513C71.25,132.6792895293513 71.25,240.03350977269082 126.5,240.03350977269082L126.5,240.05259708103245C71.25,240.05259708103245 71.25,132.69837683769293 16,132.69837683769293Z" style="stroke: rgb(108, 145, 194); stroke-opacity: 0.2; fill: rgb(108, 145, 194); fill-opacity: 0.2; stroke-width: 1; opacity: 1;"/><path class="sankey-link" d="M16,129.59233890583374C71.25,129.59233890583374 71.25,205.29023245678576 126.5,205.29023245678576L126.5,208.23386346075347C71.25,208.23386346075347 71.25,132.53596990980145 16,132.53596990980145Z" style="stroke: rgb(68, 68, 68); stroke-opacity: 1; fill: rgb(108, 145, 194); fill-opacity: 0.2; stroke-width: 0; opacity: 1;"/><path class="sankey-link" d="M16,132.53596990980145C71.25,132.53596990980145 71.25,226.62944901300875 126.5,226.62944901300875L126.5,226.7727686325586C71.25,226.7727686325586 71.25,132.6792895293513 16,132.6792895293513Z" style="stroke: rgb(108, 145, 194); stroke-opacity: 0.2; fill: rgb(108, 145, 194); fill-opacity: 0.2; stroke-width: 1; opacity: 1;"/><path class="sankey-link" d="M16,127.47243604695421C71.25,127.47243604695421 71.25,171.27015286902287 126.5,171.27015286902287L126.5,171.2841155692883C71.25,171.2841155692883 71.25,127.48639874721968 16,127.48639874721968Z" style="stroke: rgb(108, 145, 194); stroke-opacity: 0.2; fill: rgb(108, 145, 194); fill-opacity: 0.2; stroke-width: 1; opacity: 1;"/><path class="sankey-link" d="M16,118.85966934105919C71.25,118.85966934105919 71.25,89.15472287381846 126.5,89.15472287381846L126.5,89.19423434478242C71.25,89.19423434478242 71.25,118.89918081202315 16,118.89918081202315Z" style="stroke: rgb(108, 145, 194); stroke-opacity: 0.2; fill: rgb(108, 145, 194); fill-opacity: 0.2; stroke-width: 1; opacity: 1;"/><path class="sankey-link" d="M16,118.92465531303938C71.25,118.92465531303938 71.25,120.33533062650253 126.5,120.33533062650253L126.5,128.50664758620925C71.25,128.50664758620925 71.25,127.09597227274611 16,127.09597227274611Z" style="stroke: rgb(68, 68, 68); stroke-opacity: 1; fill: rgb(108, 145, 194); fill-opacity: 0.2; stroke-width: 0; opacity: 1;"/><path class="sankey-link" d="M16,129.56419069625602C71.25,129.56419069625602 71.25,194.88976011252265 126.5,194.88976011252265L126.5,194.91790832210035C71.25,194.91790832210035 71.25,129.5923389058337 16,129.5923389058337Z" style="stroke: rgb(108, 145, 194); stroke-opacity: 0.2; fill: rgb(108, 145, 194); fill-opacity: 0.2; stroke-width: 1; opacity: 1;"/><path class="sankey-link" d="M16,127.09597227274611C71.25,127.09597227274611 71.25,139.64072848962485 126.5,139.64072848962485L126.5,139.9554741578723C71.25,139.9554741578723 71.25,127.41071794099358 16,127.41071794099358Z" style="stroke: rgb(108, 145, 194); stroke-opacity: 0.2; fill: rgb(108, 145, 194); fill-opacity: 0.2; stroke-width: 1; opacity: 1;"/><path class="sankey-link" d="M16,127.41071794099358C71.25,127.41071794099358 71.25,150.4634101749711 126.5,150.4634101749711L126.5,150.50975445670326C71.25,150.50975445670326 71.25,127.45706222272574 16,127.45706222272574Z" style="stroke: rgb(108, 145, 194); stroke-opacity: 0.2; fill: rgb(108, 145, 194); fill-opacity: 0.2; stroke-width: 1; opacity: 1;"/><path class="sankey-link" d="M16,118.89918081202315C71.25,118.89918081202315 71.25,99.56734720226518 126.5,99.56734720226518L126.5,99.56920394432177C71.25,99.56920394432177 71.25,118.90103755407974 16,118.90103755407974Z" style="stroke: rgb(108, 145, 194); stroke-opacity: 0.2; fill: rgb(108, 145, 194); fill-opacity: 0.2; stroke-width: 1; opacity: 1;"/><path class="sankey-link" d="M16,160.77850317791516C71.25,160.77850317791516 71.25,261.91167186724414 126.5,261.91167186724414L126.5,265.27758690461707C71.25,265.27758690461707 71.25,164.14441821528814 16,164.14441821528814Z" style="stroke: rgb(68, 68, 68); stroke-opacity: 1; fill: rgb(175, 199, 120); fill-opacity: 0.2; stroke-width: 0; opacity: 1;"/><path class="sankey-link" d="M16,146.50876418126023C71.25,146.50876418126023 71.25,67.57414728665633 126.5,67.57414728665633L126.5,68.30874436155291C71.25,68.30874436155291 71.25,147.24336125615685 16,147.24336125615685Z" style="stroke: rgb(175, 199, 120); stroke-opacity: 0.2; fill: rgb(175, 199, 120); fill-opacity: 0.2; stroke-width: 1; opacity: 1;"/><path class="sankey-link" d="M16,164.14441821528814C71.25,164.14441821528814 71.25,276.0171455283239 126.5,276.0171455283239L126.5,280C71.25,280 71.25,168.12727268696423 16,168.12727268696423Z" style="stroke: rgb(68, 68, 68); stroke-opacity: 1; fill: rgb(175, 199, 120); fill-opacity: 0.2; stroke-width: 0; opacity: 1;"/><path class="sankey-link" d="M16,148.16123154498078C71.25,148.16123154498078 71.25,183.7332470382761 126.5,183.7332470382761L126.5,184.51938974215233C71.25,184.51938974215233 71.25,148.94737424885702 16,148.94737424885702Z" style="stroke: rgb(175, 199, 120); stroke-opacity: 0.2; fill: rgb(175, 199, 120); fill-opacity: 0.2; stroke-width: 1; opacity: 1;"/><path class="sankey-link" d="M16,159.95402404437684C71.25,159.95402404437684 71.25,250.7050877535379 126.5,250.7050877535379L126.5,251.52956688707621C71.25,251.52956688707621 71.25,160.77850317791516 16,160.77850317791516Z" style="stroke: rgb(175, 199, 120); stroke-opacity: 0.2; fill: rgb(175, 199, 120); fill-opacity: 0.2; stroke-width: 1; opacity: 1;"/><path class="sankey-link" d="M16,147.24336125615682C71.25,147.24336125615682 71.25,78.77752206092192 126.5,78.77752206092192L126.5,78.78435250344806C71.25,78.78435250344806 71.25,147.25019169868293 16,147.25019169868293Z" style="stroke: rgb(175, 199, 120); stroke-opacity: 0.2; fill: rgb(175, 199, 120); fill-opacity: 0.2; stroke-width: 1; opacity: 1;"/><path class="sankey-link" d="M16,148.15919529985035C71.25,148.15919529985035 71.25,160.8987154031031 126.5,160.8987154031031L126.5,160.89978249865248C71.25,160.89978249865248 71.25,148.16026239539974 16,148.16026239539974Z" style="stroke: rgb(175, 199, 120); stroke-opacity: 0.2; fill: rgb(175, 199, 120); fill-opacity: 0.2; stroke-width: 1; opacity: 1;"/><path class="sankey-link" d="M16,147.25306306206943C71.25,147.25306306206943 71.25,109.96332094992587 126.5,109.96332094992587L126.5,109.96496025613214C71.25,109.96496025613214 71.25,147.25470236827567 16,147.25470236827567Z" style="stroke: rgb(175, 199, 120); stroke-opacity: 0.2; fill: rgb(175, 199, 120); fill-opacity: 0.2; stroke-width: 1; opacity: 1;"/><path class="sankey-link" d="M16,144.47957875746488C71.25,144.47957875746488 71.25,29.234814118527 126.5,29.234814118527L126.5,31.26399954232235C71.25,31.26399954232235 71.25,146.50876418126023 16,146.50876418126023Z" style="stroke: rgb(68, 68, 68); stroke-opacity: 1; fill: rgb(175, 199, 120); fill-opacity: 0.2; stroke-width: 0; opacity: 1;"/><path class="sankey-link" d="M16,159.86491396481878C71.25,159.86491396481878 71.25,240.05259708103245 126.5,240.05259708103245L126.5,240.1417071605905C71.25,240.1417071605905 71.25,159.95402404437684 16,159.95402404437684Z" style="stroke: rgb(175, 199, 120); stroke-opacity: 0.2; fill: rgb(175, 199, 120); fill-opacity: 0.2; stroke-width: 1; opacity: 1;"/><path class="sankey-link" d="M16,148.94932801317205C71.25,148.94932801317205 71.25,208.23386346075347 126.5,208.23386346075347L126.5,216.25907864263837C71.25,216.25907864263837 71.25,156.97454319505695 16,156.97454319505695Z" style="stroke: rgb(68, 68, 68); stroke-opacity: 1; fill: rgb(175, 199, 120); fill-opacity: 0.2; stroke-width: 0; opacity: 1;"/><path class="sankey-link" d="M16,156.97454319505695C71.25,156.97454319505695 71.25,226.7727686325586 126.5,226.7727686325586L126.5,229.66313940232044C71.25,229.66313940232044 71.25,159.86491396481878 16,159.86491396481878Z" style="stroke: rgb(68, 68, 68); stroke-opacity: 1; fill: rgb(175, 199, 120); fill-opacity: 0.2; stroke-width: 0; opacity: 1;"/><path class="sankey-link" d="M16,148.1602623953997C71.25,148.1602623953997 71.25,171.28411556928833 126.5,171.28411556928833L126.5,171.2850847188694C71.25,171.2850847188694 71.25,148.16123154498078 16,148.16123154498078Z" style="stroke: rgb(175, 199, 120); stroke-opacity: 0.2; fill: rgb(175, 199, 120); fill-opacity: 0.2; stroke-width: 1; opacity: 1;"/><path class="sankey-link" d="M16,147.25019169868295C71.25,147.25019169868295 71.25,89.19423434478242 126.5,89.19423434478242L126.5,89.1969768318948C71.25,89.1969768318948 71.25,147.2529341857953 16,147.2529341857953Z" style="stroke: rgb(175, 199, 120); stroke-opacity: 0.2; fill: rgb(175, 199, 120); fill-opacity: 0.2; stroke-width: 1; opacity: 1;"/><path class="sankey-link" d="M16,147.2547023682757C71.25,147.2547023682757 71.25,128.50664758620925 126.5,128.50664758620925L126.5,129.2703581192545C71.25,129.2703581192545 71.25,148.01841290132094 16,148.01841290132094Z" style="stroke: rgb(175, 199, 120); stroke-opacity: 0.2; fill: rgb(175, 199, 120); fill-opacity: 0.2; stroke-width: 1; opacity: 1;"/><path class="sankey-link" d="M16,148.94737424885702C71.25,148.94737424885702 71.25,194.91790832210037 126.5,194.91790832210037L126.5,194.9198620864154C71.25,194.9198620864154 71.25,148.94932801317205 16,148.94932801317205Z" style="stroke: rgb(175, 199, 120); stroke-opacity: 0.2; fill: rgb(175, 199, 120); fill-opacity: 0.2; stroke-width: 1; opacity: 1;"/><path class="sankey-link" d="M16,148.01841290132094C71.25,148.01841290132094 71.25,139.95547415787232 126.5,139.95547415787232L126.5,140.09303980460075C71.25,140.09303980460075 71.25,148.15597854804938 16,148.15597854804938Z" style="stroke: rgb(175, 199, 120); stroke-opacity: 0.2; fill: rgb(175, 199, 120); fill-opacity: 0.2; stroke-width: 1; opacity: 1;"/><path class="sankey-link" d="M16,148.15597854804938C71.25,148.15597854804938 71.25,150.50975445670326 126.5,150.50975445670326L126.5,150.51297120850427C71.25,150.51297120850427 71.25,148.15919529985038 16,148.15919529985038Z" style="stroke: rgb(175, 199, 120); stroke-opacity: 0.2; fill: rgb(175, 199, 120); fill-opacity: 0.2; stroke-width: 1; opacity: 1;"/><path class="sankey-link" d="M16,147.25293418579534C71.25,147.25293418579534 71.25,99.56920394432176 126.5,99.56920394432176L126.5,99.56933282059585C71.25,99.56933282059585 71.25,147.2530630620694 16,147.2530630620694Z" style="stroke: rgb(175, 199, 120); stroke-opacity: 0.2; fill: rgb(175, 199, 120); fill-opacity: 0.2; stroke-width: 1; opacity: 1;"/><path class="sankey-link" d="M142.5,263.97199501022095C197.75,263.97199501022095 197.75,164.71617395498055 253,164.71617395498055L253,165.51830843087419C197.75,165.51830843087419 197.75,264.77412948611453 142.5,264.77412948611453Z" style="stroke: rgb(108, 145, 194); stroke-opacity: 0.2; fill: rgb(108, 145, 194); fill-opacity: 0.2; stroke-width: 1; opacity: 1;"/><path class="sankey-link" d="M142.5,261.8999372574466C197.75,261.8999372574466 197.75,126.78172819304815 253,126.78172819304815L253,128.85378594582252C197.75,128.85378594582252 197.75,263.971995010221 142.5,263.971995010221Z" style="stroke: rgb(68, 68, 68); stroke-opacity: 1; fill: rgb(175, 199, 120); fill-opacity: 0.2; stroke-width: 0; opacity: 1;"/><path class="sankey-link" d="M142.5,55.718714001153174C197.75,55.718714001153174 197.75,147.8362540207245 253,147.8362540207245L253,156.35877420910614C197.75,156.35877420910614 197.75,64.24123418953481 142.5,64.24123418953481Z" style="stroke: rgb(68, 68, 68); stroke-opacity: 1; fill: rgb(108, 145, 194); fill-opacity: 0.2; stroke-width: 0; opacity: 1;"/><path class="sankey-link" d="M142.5,41.634369912692634C197.75,41.634369912692634 197.75,99.21505028354137 253,99.21505028354137L253,113.29939437200191C197.75,113.29939437200191 197.75,55.718714001153174 142.5,55.718714001153174Z" style="stroke: rgb(68, 68, 68); stroke-opacity: 1; fill: rgb(175, 199, 120); fill-opacity: 0.2; stroke-width: 0; opacity: 1;"/><path class="sankey-link" d="M142.5,277.6063765012432C197.75,277.6063765012432 197.75,165.51830843087416 253,165.51830843087416L253,167.08504381187865C197.75,167.08504381187865 197.75,279.17311188224767 142.5,279.17311188224767Z" style="stroke: rgb(68, 68, 68); stroke-opacity: 1; fill: rgb(108, 145, 194); fill-opacity: 0.2; stroke-width: 0; opacity: 1;"/><path class="sankey-link" d="M142.5,275.64795727498756C197.75,275.64795727498756 197.75,128.85378594582252 253,128.85378594582252L253,130.81220517207814C197.75,130.81220517207814 197.75,277.6063765012432 142.5,277.6063765012432Z" style="stroke: rgb(68, 68, 68); stroke-opacity: 1; fill: rgb(175, 199, 120); fill-opacity: 0.2; stroke-width: 0; opacity: 1;"/><path class="sankey-link" d="M142.5,182.82050370604458C197.75,182.82050370604458 197.75,159.97207050240078 253,159.97207050240078L253,160.6470999000923C197.75,160.6470999000923 197.75,183.49553310373608 142.5,183.49553310373608Z" style="stroke: rgb(108, 145, 194); stroke-opacity: 0.2; fill: rgb(108, 145, 194); fill-opacity: 0.2; stroke-width: 1; opacity: 1;"/><path class="sankey-link" d="M142.5,181.65545508923975C197.75,181.65545508923975 197.75,117.29147526720715 253,117.29147526720715L253,118.45652388401197C197.75,118.45652388401197 197.75,182.82050370604458 142.5,182.82050370604458Z" style="stroke: rgb(68, 68, 68); stroke-opacity: 1; fill: rgb(175, 199, 120); fill-opacity: 0.2; stroke-width: 0; opacity: 1;"/><path class="sankey-link" d="M142.5,251.1494659180939C197.75,251.1494659180939 197.75,164.49098861933376 253,164.49098861933376L253,164.71617395498052C197.75,164.71617395498052 197.75,251.37465125374067 142.5,251.37465125374067Z" style="stroke: rgb(108, 145, 194); stroke-opacity: 0.2; fill: rgb(108, 145, 194); fill-opacity: 0.2; stroke-width: 1; opacity: 1;"/><path class="sankey-link" d="M142.5,250.51207753096088C197.75,250.51207753096088 197.75,126.14433980591512 253,126.14433980591512L253,126.78172819304815C197.75,126.78172819304815 197.75,251.14946591809394 142.5,251.14946591809394Z" style="stroke: rgb(175, 199, 120); stroke-opacity: 0.2; fill: rgb(175, 199, 120); fill-opacity: 0.2; stroke-width: 1; opacity: 1;"/><path class="sankey-link" d="M142.5,78.73030626706769C197.75,78.73030626706769 197.75,156.35877420910614 253,156.35877420910614L253,156.3600164693112C197.75,156.3600164693112 197.75,78.73154852727278 142.5,78.73154852727278Z" style="stroke: rgb(108, 145, 194); stroke-opacity: 0.2; fill: rgb(108, 145, 194); fill-opacity: 0.2; stroke-width: 1; opacity: 1;"/><path class="sankey-link" d="M142.5,78.67911473192333C197.75,78.67911473192333 197.75,113.29939437200191 253,113.29939437200191L253,113.35058590714628C197.75,113.35058590714628 197.75,78.7303062670677 142.5,78.7303062670677Z" style="stroke: rgb(175, 199, 120); stroke-opacity: 0.2; fill: rgb(175, 199, 120); fill-opacity: 0.2; stroke-width: 1; opacity: 1;"/><path class="sankey-link" d="M142.5,160.890197442422C197.75,160.890197442422 197.75,159.963066994067 253,159.963066994067L253,159.96729231044992C197.75,159.96729231044992 197.75,160.89442275880492 142.5,160.89442275880492Z" style="stroke: rgb(108, 145, 194); stroke-opacity: 0.2; fill: rgb(108, 145, 194); fill-opacity: 0.2; stroke-width: 1; opacity: 1;"/><path class="sankey-link" d="M142.5,160.88334157887465C197.75,160.88334157887465 197.75,117.27715347873652 253,117.27715347873652L253,117.28400934228387C197.75,117.28400934228387 197.75,160.890197442422 142.5,160.890197442422Z" style="stroke: rgb(175, 199, 120); stroke-opacity: 0.2; fill: rgb(175, 199, 120); fill-opacity: 0.2; stroke-width: 1; opacity: 1;"/><path class="sankey-link" d="M142.5,109.95196297039776C197.75,109.95196297039776 197.75,156.36124848172614 253,156.36124848172614L253,156.36537523360357C197.75,156.36537523360357 197.75,109.95608972227522 142.5,109.95608972227522Z" style="stroke: rgb(108, 145, 194); stroke-opacity: 0.2; fill: rgb(108, 145, 194); fill-opacity: 0.2; stroke-width: 1; opacity: 1;"/><path class="sankey-link" d="M142.5,109.93970319096621C197.75,109.93970319096621 197.75,113.36882574109012 253,113.36882574109012L253,113.38108552052165C197.75,113.38108552052165 197.75,109.95196297039774 142.5,109.95196297039774Z" style="stroke: rgb(175, 199, 120); stroke-opacity: 0.2; fill: rgb(175, 199, 120); fill-opacity: 0.2; stroke-width: 1; opacity: 1;"/><path class="sankey-link" d="M142.5,18.680871571968318C197.75,18.680871571968318 197.75,141.18257554244855 253,141.18257554244855L253,147.83625402072454C197.75,147.83625402072454 197.75,25.334550050244296 142.5,25.334550050244296Z" style="stroke: rgb(68, 68, 68); stroke-opacity: 1; fill: rgb(108, 145, 194); fill-opacity: 0.2; stroke-width: 0; opacity: 1;"/><path class="sankey-link" d="M142.5,-9.237055564881302e-14C197.75,-9.237055564881302e-14 197.75,80.53417871157296 253,80.53417871157296L253,99.21505028354136C197.75,99.21505028354136 197.75,18.680871571968318 142.5,18.680871571968318Z" style="stroke: rgb(68, 68, 68); stroke-opacity: 1; fill: rgb(175, 199, 120); fill-opacity: 0.2; stroke-width: 0; opacity: 1;"/><path class="sankey-link" d="M142.5,240.11082722588813C197.75,240.11082722588813 197.75,164.47778163736874 253,164.47778163736874L253,164.49098861933376C197.75,164.49098861933376 197.75,240.12403420785316 142.5,240.12403420785316Z" style="stroke: rgb(108, 145, 194); stroke-opacity: 0.2; fill: rgb(108, 145, 194); fill-opacity: 0.2; stroke-width: 1; opacity: 1;"/><path class="sankey-link" d="M142.5,240.03350977269082C197.75,240.03350977269082 197.75,126.06702235271781 253,126.06702235271781L253,126.14433980591512C197.75,126.14433980591512 197.75,240.1108272258881 142.5,240.1108272258881Z" style="stroke: rgb(175, 199, 120); stroke-opacity: 0.2; fill: rgb(175, 199, 120); fill-opacity: 0.2; stroke-width: 1; opacity: 1;"/><path class="sankey-link" d="M142.5,210.1969959087344C197.75,210.1969959087344 197.75,160.66072016027672 253,160.66072016027672L253,164.13204905150096C197.75,164.13204905150096 197.75,213.66832479995864 142.5,213.66832479995864Z" style="stroke: rgb(68, 68, 68); stroke-opacity: 1; fill: rgb(108, 145, 194); fill-opacity: 0.2; stroke-width: 0; opacity: 1;"/><path class="sankey-link" d="M142.5,205.29023245678576C197.75,205.29023245678576 197.75,118.47230109732526 253,118.47230109732526L253,123.3790645492739C197.75,123.3790645492739 197.75,210.19699590873438 142.5,210.19699590873438Z" style="stroke: rgb(68, 68, 68); stroke-opacity: 1; fill: rgb(175, 199, 120); fill-opacity: 0.2; stroke-width: 0; opacity: 1;"/><path class="sankey-link" d="M142.5,229.31740681645266C197.75,229.31740681645266 197.75,164.13204905150099 253,164.13204905150099L253,164.47778163736876C197.75,164.47778163736876 197.75,229.66313940232044 142.5,229.66313940232044Z" style="stroke: rgb(108, 145, 194); stroke-opacity: 0.2; fill: rgb(108, 145, 194); fill-opacity: 0.2; stroke-width: 1; opacity: 1;"/><path class="sankey-link" d="M142.5,226.62944901300875C197.75,226.62944901300875 197.75,123.37906454927389 253,123.37906454927389L253,126.0670223527178C197.75,126.0670223527178 197.75,229.31740681645266 142.5,229.31740681645266Z" style="stroke: rgb(68, 68, 68); stroke-opacity: 1; fill: rgb(175, 199, 120); fill-opacity: 0.2; stroke-width: 0; opacity: 1;"/><path class="sankey-link" d="M142.5,171.27761879394612C197.75,171.27761879394612 197.75,159.9672923104499 253,159.9672923104499L253,159.97207050240078C197.75,159.97207050240078 197.75,171.282396985897 142.5,171.282396985897Z" style="stroke: rgb(108, 145, 194); stroke-opacity: 0.2; fill: rgb(108, 145, 194); fill-opacity: 0.2; stroke-width: 1; opacity: 1;"/><path class="sankey-link" d="M142.5,171.27015286902287C197.75,171.27015286902287 197.75,117.28400934228388 253,117.28400934228388L253,117.29147526720713C197.75,117.29147526720713 197.75,171.27761879394615 142.5,171.27761879394615Z" style="stroke: rgb(175, 199, 120); stroke-opacity: 0.2; fill: rgb(175, 199, 120); fill-opacity: 0.2; stroke-width: 1; opacity: 1;"/><path class="sankey-link" d="M142.5,89.1717381769378C197.75,89.1717381769378 197.75,156.36001646931123 253,156.36001646931123L253,156.36103065939528C197.75,156.36103065939528 197.75,89.17275236702181 142.5,89.17275236702181Z" style="stroke: rgb(108, 145, 194); stroke-opacity: 0.2; fill: rgb(108, 145, 194); fill-opacity: 0.2; stroke-width: 1; opacity: 1;"/><path class="sankey-link" d="M142.5,89.15472287381846C197.75,89.15472287381846 197.75,113.35058590714627 253,113.35058590714627L253,113.3676012102656C197.75,113.3676012102656 197.75,89.1717381769378 142.5,89.1717381769378Z" style="stroke: rgb(175, 199, 120); stroke-opacity: 0.2; fill: rgb(175, 199, 120); fill-opacity: 0.2; stroke-width: 1; opacity: 1;"/><path class="sankey-link" d="M142.5,123.8199913486758C197.75,123.8199913486758 197.75,156.3653752336036 253,156.3653752336036L253,159.9393862307044C197.75,159.9393862307044 197.75,127.3940023457766 142.5,127.3940023457766Z" style="stroke: rgb(68, 68, 68); stroke-opacity: 1; fill: rgb(108, 145, 194); fill-opacity: 0.2; stroke-width: 0; opacity: 1;"/><path class="sankey-link" d="M142.5,120.33533062650253C197.75,120.33533062650253 197.75,113.38108552052167 253,113.38108552052167L253,116.86574624269493C197.75,116.86574624269493 197.75,123.81999134867579 142.5,123.81999134867579Z" style="stroke: rgb(68, 68, 68); stroke-opacity: 1; fill: rgb(175, 199, 120); fill-opacity: 0.2; stroke-width: 0; opacity: 1;"/><path class="sankey-link" d="M142.5,194.90553732583592C197.75,194.90553732583592 197.75,160.6470999000923 253,160.6470999000923L253,160.66072016027672C197.75,160.66072016027672 197.75,194.91915758602036 142.5,194.91915758602036Z" style="stroke: rgb(108, 145, 194); stroke-opacity: 0.2; fill: rgb(108, 145, 194); fill-opacity: 0.2; stroke-width: 1; opacity: 1;"/><path class="sankey-link" d="M142.5,194.88976011252265C197.75,194.88976011252265 197.75,118.45652388401199 253,118.45652388401199L253,118.47230109732526C197.75,118.47230109732526 197.75,194.9055373258359 142.5,194.9055373258359Z" style="stroke: rgb(175, 199, 120); stroke-opacity: 0.2; fill: rgb(175, 199, 120); fill-opacity: 0.2; stroke-width: 1; opacity: 1;"/><path class="sankey-link" d="M142.5,140.0203533762841C197.75,140.0203533762841 197.75,159.9393862307044 253,159.9393862307044L253,159.94580905137704C197.75,159.94580905137704 197.75,140.02677619695675 142.5,140.02677619695675Z" style="stroke: rgb(108, 145, 194); stroke-opacity: 0.2; fill: rgb(108, 145, 194); fill-opacity: 0.2; stroke-width: 1; opacity: 1;"/><path class="sankey-link" d="M142.5,139.64072848962485C197.75,139.64072848962485 197.75,116.86574624269494 253,116.86574624269494L253,117.2453711293542C197.75,117.2453711293542 197.75,140.0203533762841 142.5,140.0203533762841Z" style="stroke: rgb(175, 199, 120); stroke-opacity: 0.2; fill: rgb(175, 199, 120); fill-opacity: 0.2; stroke-width: 1; opacity: 1;"/><path class="sankey-link" d="M142.5,150.49519252435343C197.75,150.49519252435343 197.75,159.94580905137707 253,159.94580905137707L253,159.963066994067C197.75,159.963066994067 197.75,150.51245046704335 142.5,150.51245046704335Z" style="stroke: rgb(108, 145, 194); stroke-opacity: 0.2; fill: rgb(108, 145, 194); fill-opacity: 0.2; stroke-width: 1; opacity: 1;"/><path class="sankey-link" d="M142.5,150.4634101749711C197.75,150.4634101749711 197.75,117.2453711293542 253,117.2453711293542L253,117.27715347873652C197.75,117.27715347873652 197.75,150.49519252435346 142.5,150.49519252435346Z" style="stroke: rgb(175, 199, 120); stroke-opacity: 0.2; fill: rgb(175, 199, 120); fill-opacity: 0.2; stroke-width: 1; opacity: 1;"/><path class="sankey-link" d="M142.5,99.5685717330897C197.75,99.5685717330897 197.75,156.36103065939525 253,156.36103065939525L253,156.3612484817261C197.75,156.3612484817261 197.75,99.56878955542058 142.5,99.56878955542058Z" style="stroke: rgb(108, 145, 194); stroke-opacity: 0.2; fill: rgb(108, 145, 194); fill-opacity: 0.2; stroke-width: 1; opacity: 1;"/><path class="sankey-link" d="M142.5,99.56734720226518C197.75,99.56734720226518 197.75,113.3676012102656 253,113.3676012102656L253,113.36882574109012C197.75,113.36882574109012 197.75,99.5685717330897 142.5,99.5685717330897Z" style="stroke: rgb(175, 199, 120); stroke-opacity: 0.2; fill: rgb(175, 199, 120); fill-opacity: 0.2; stroke-width: 1; opacity: 1;"/></g><g class="sankey-node-set" style="cursor: move;"><g class="sankey-node" transform="translate(0.000,63.587)" style="opacity: 1;"><rect class="node-rect" width="16" height="69.68563940383395" style="stroke-width: 0; stroke: rgb(0, 0, 0); stroke-opacity: 0; fill: rgb(108, 145, 194); fill-opacity: 1;"/><text class="node-label" data-notex="1" x="0" y="0" text-anchor="start" transform="translate(19,27.717819701916973)" style="cursor: default; font-family: Arial, Helvetica, 'Microsoft YaHei'; font-size: 7.5px; fill: rgb(42, 63, 95); fill-opacity: 1; text-shadow: rgb(255, 255, 255) 1px 1px 1px, rgb(255, 255, 255) -1px -1px 1px, rgb(255, 255, 255) 1px -1px 1px, rgb(255, 255, 255) -1px 1px 1px; white-space: pre;"><tspan class="line" dy="0em" x="0" y="0">DC</tspan><tspan class="line" dy="1.3em" x="0" y="0">Cost Attribution</tspan><tspan class="line" dy="2.6em" x="0" y="0"> (333.4)</tspan></text></g><g class="sankey-node" transform="translate(0.000,144.480)" style="opacity: 1;"><rect class="node-rect" width="16" height="23.64769392949944" style="stroke-width: 0; stroke: rgb(0, 0, 0); stroke-opacity: 0; fill: rgb(175, 199, 120); fill-opacity: 1;"/><text class="node-label" data-notex="1" x="0" y="0" text-anchor="start" transform="translate(19,4.698846964749719)" style="cursor: default; font-family: Arial, Helvetica, 'Microsoft YaHei'; font-size: 7.5px; fill: rgb(42, 63, 95); fill-opacity: 1; text-shadow: rgb(255, 255, 255) 1px 1px 1px, rgb(255, 255, 255) -1px -1px 1px, rgb(255, 255, 255) 1px -1px 1px, rgb(255, 255, 255) -1px 1px 1px; white-space: pre;"><tspan class="line" dy="0em" x="0" y="0">Non-DC</tspan><tspan class="line" dy="1.3em" x="0" y="0">Cost Attribution</tspan><tspan class="line" dy="2.6em" x="0" y="0"> (113.1)</tspan></text></g><g class="sankey-node" transform="translate(126.500,261.900)" style="opacity: 1;"><rect class="node-rect" width="16" height="3.3776496471705855" style="stroke-width: 0; stroke: rgb(0, 0, 0); stroke-opacity: 0; fill: rgb(240, 65, 64); fill-opacity: 1;"/><text class="node-label" data-notex="1" x="0" y="0" text-anchor="start" transform="translate(19,4.313824823585293)" style="cursor: default; font-family: Arial, Helvetica, 'Microsoft YaHei'; font-size: 7.5px; fill: rgb(42, 63, 95); fill-opacity: 1; text-shadow: rgb(255, 255, 255) 1px 1px 1px, rgb(255, 255, 255) -1px -1px 1px, rgb(255, 255, 255) 1px -1px 1px, rgb(255, 255, 255) -1px 1px 1px; white-space: pre;">AECO (NJ)</text></g><g class="sankey-node" transform="translate(126.500,41.634)" style="opacity: 1;"><rect class="node-rect" width="16" height="26.674374448860334" style="stroke-width: 0; stroke: rgb(0, 0, 0); stroke-opacity: 0; fill: rgb(241, 72, 71); fill-opacity: 1;"/><text class="node-label" data-notex="1" x="0" y="0" text-anchor="start" transform="translate(19,15.962187224430167)" style="cursor: default; font-family: Arial, Helvetica, 'Microsoft YaHei'; font-size: 7.5px; fill: rgb(42, 63, 95); fill-opacity: 1; text-shadow: rgb(255, 255, 255) 1px 1px 1px, rgb(255, 255, 255) -1px -1px 1px, rgb(255, 255, 255) 1px -1px 1px, rgb(255, 255, 255) -1px 1px 1px; white-space: pre;">AEP (VA,OH)</text></g><g class="sankey-node" transform="translate(126.500,275.648)" style="opacity: 1;"><rect class="node-rect" width="16" height="4.3520427250124385" style="stroke-width: 0; stroke: rgb(0, 0, 0); stroke-opacity: 0; fill: rgb(241, 79, 78); fill-opacity: 1;"/><text class="node-label" data-notex="1" x="0" y="0" text-anchor="start" transform="translate(19,4.801021362506219)" style="cursor: default; font-family: Arial, Helvetica, 'Microsoft YaHei'; font-size: 7.5px; fill: rgb(42, 63, 95); fill-opacity: 1; text-shadow: rgb(255, 255, 255) 1px 1px 1px, rgb(255, 255, 255) -1px -1px 1px, rgb(255, 255, 255) 1px -1px 1px, rgb(255, 255, 255) -1px 1px 1px; white-space: pre;">APS (PA)</text></g><g class="sankey-node" transform="translate(126.500,181.655)" style="opacity: 1;"><rect class="node-rect" width="16" height="2.863934652912519" style="stroke-width: 0; stroke: rgb(0, 0, 0); stroke-opacity: 0; fill: rgb(242, 86, 85); fill-opacity: 1;"/><text class="node-label" data-notex="1" x="0" y="0" text-anchor="start" transform="translate(19,4.05696732645626)" style="cursor: default; font-family: Arial, Helvetica, 'Microsoft YaHei'; font-size: 7.5px; fill: rgb(42, 63, 95); fill-opacity: 1; text-shadow: rgb(255, 255, 255) 1px 1px 1px, rgb(255, 255, 255) -1px -1px 1px, rgb(255, 255, 255) 1px -1px 1px, rgb(255, 255, 255) -1px 1px 1px; white-space: pre;">ATSI (OH)</text></g><g class="sankey-node" transform="translate(126.500,250.512)" style="opacity: 1;"><rect class="node-rect" width="16" height="1.017489356115334" style="stroke-width: 0; stroke: rgb(0, 0, 0); stroke-opacity: 0; fill: rgb(242, 93, 92); fill-opacity: 1;"/><text class="node-label" data-notex="1" x="0" y="0" text-anchor="start" transform="translate(19,3.133744678057667)" style="cursor: default; font-family: Arial, Helvetica, 'Microsoft YaHei'; font-size: 7.5px; fill: rgb(42, 63, 95); fill-opacity: 1; text-shadow: rgb(255, 255, 255) 1px 1px 1px, rgb(255, 255, 255) -1px -1px 1px, rgb(255, 255, 255) 1px -1px 1px, rgb(255, 255, 255) -1px 1px 1px; white-space: pre;">BGE (MD)</text></g><g class="sankey-node" transform="translate(126.500,78.679)" style="opacity: 1;"><rect class="node-rect" width="16" height="0.5" style="stroke-width: 0; stroke: rgb(0, 0, 0); stroke-opacity: 0; fill: rgb(243, 100, 99); fill-opacity: 1;"/><text class="node-label" data-notex="1" x="0" y="0" text-anchor="start" transform="translate(19,2.875)" style="cursor: default; font-family: Arial, Helvetica, 'Microsoft YaHei'; font-size: 7.5px; fill: rgb(42, 63, 95); fill-opacity: 1; text-shadow: rgb(255, 255, 255) 1px 1px 1px, rgb(255, 255, 255) -1px -1px 1px, rgb(255, 255, 255) 1px -1px 1px, rgb(255, 255, 255) -1px 1px 1px; white-space: pre;">COMED (IL)</text></g><g class="sankey-node" transform="translate(126.500,160.883)" style="opacity: 1;"><rect class="node-rect" width="16" height="0.5" style="stroke-width: 0; stroke: rgb(0, 0, 0); stroke-opacity: 0; fill: rgb(243, 107, 106); fill-opacity: 1;"/><text class="node-label" data-notex="1" x="0" y="0" text-anchor="start" transform="translate(19,2.875)" style="cursor: default; font-family: Arial, Helvetica, 'Microsoft YaHei'; font-size: 7.5px; fill: rgb(42, 63, 95); fill-opacity: 1; text-shadow: rgb(255, 255, 255) 1px 1px 1px, rgb(255, 255, 255) -1px -1px 1px, rgb(255, 255, 255) 1px -1px 1px, rgb(255, 255, 255) -1px 1px 1px; white-space: pre;">DAY (OH)</text></g><g class="sankey-node" transform="translate(126.500,109.940)" style="opacity: 1;"><rect class="node-rect" width="16" height="0.5" style="stroke-width: 0; stroke: rgb(0, 0, 0); stroke-opacity: 0; fill: rgb(244, 114, 113); fill-opacity: 1;"/><text class="node-label" data-notex="1" x="0" y="0" text-anchor="start" transform="translate(19,2.875)" style="cursor: default; font-family: Arial, Helvetica, 'Microsoft YaHei'; font-size: 7.5px; fill: rgb(42, 63, 95); fill-opacity: 1; text-shadow: rgb(255, 255, 255) 1px 1px 1px, rgb(255, 255, 255) -1px -1px 1px, rgb(255, 255, 255) 1px -1px 1px, rgb(255, 255, 255) -1px 1px 1px; white-space: pre;">DEOK (OH)</text></g><g class="sankey-node" transform="translate(126.500,-0.000)" style="opacity: 1;"><rect class="node-rect" width="16" height="31.26399954232236" style="stroke-width: 0; stroke: rgb(0, 0, 0); stroke-opacity: 0; fill: rgb(244, 121, 120); fill-opacity: 1;"/><text class="node-label" data-notex="1" x="0" y="0" text-anchor="start" transform="translate(19,18.25699977116118)" style="cursor: default; font-family: Arial, Helvetica, 'Microsoft YaHei'; font-size: 7.5px; fill: rgb(42, 63, 95); fill-opacity: 1; text-shadow: rgb(255, 255, 255) 1px 1px 1px, rgb(255, 255, 255) -1px -1px 1px, rgb(255, 255, 255) 1px -1px 1px, rgb(255, 255, 255) -1px 1px 1px; white-space: pre;">DOM (VA)</text></g><g class="sankey-node" transform="translate(126.500,240.034)" style="opacity: 1;"><rect class="node-rect" width="16" height="0.5" style="stroke-width: 0; stroke: rgb(0, 0, 0); stroke-opacity: 0; fill: rgb(245, 128, 127); fill-opacity: 1;"/><text class="node-label" data-notex="1" x="0" y="0" text-anchor="start" transform="translate(19,2.875)" style="cursor: default; font-family: Arial, Helvetica, 'Microsoft YaHei'; font-size: 7.5px; fill: rgb(42, 63, 95); fill-opacity: 1; text-shadow: rgb(255, 255, 255) 1px 1px 1px, rgb(255, 255, 255) -1px -1px 1px, rgb(255, 255, 255) 1px -1px 1px, rgb(255, 255, 255) -1px 1px 1px; white-space: pre;">DPL (DE, MD)</text></g><g class="sankey-node" transform="translate(126.500,205.290)" style="opacity: 1;"><rect class="node-rect" width="16" height="10.968846185852613" style="stroke-width: 0; stroke: rgb(0, 0, 0); stroke-opacity: 0; fill: rgb(245, 135, 134); fill-opacity: 1;"/><text class="node-label" data-notex="1" x="0" y="0" text-anchor="start" transform="translate(19,8.109423092926306)" style="cursor: default; font-family: Arial, Helvetica, 'Microsoft YaHei'; font-size: 7.5px; fill: rgb(42, 63, 95); fill-opacity: 1; text-shadow: rgb(255, 255, 255) 1px 1px 1px, rgb(255, 255, 255) -1px -1px 1px, rgb(255, 255, 255) 1px -1px 1px, rgb(255, 255, 255) -1px 1px 1px; white-space: pre;">DUQ (PA)</text></g><g class="sankey-node" transform="translate(126.500,226.629)" style="opacity: 1;"><rect class="node-rect" width="16" height="3.033690389311687" style="stroke-width: 0; stroke: rgb(0, 0, 0); stroke-opacity: 0; fill: rgb(246, 142, 141); fill-opacity: 1;"/><text class="node-label" data-notex="1" x="0" y="0" text-anchor="start" transform="translate(19,4.141845194655843)" style="cursor: default; font-family: Arial, Helvetica, 'Microsoft YaHei'; font-size: 7.5px; fill: rgb(42, 63, 95); fill-opacity: 1; text-shadow: rgb(255, 255, 255) 1px 1px 1px, rgb(255, 255, 255) -1px -1px 1px, rgb(255, 255, 255) 1px -1px 1px, rgb(255, 255, 255) -1px 1px 1px; white-space: pre;">JCPL (NJ)</text></g><g class="sankey-node" transform="translate(126.500,171.270)" style="opacity: 1;"><rect class="node-rect" width="16" height="0.5" style="stroke-width: 0; stroke: rgb(0, 0, 0); stroke-opacity: 0; fill: rgb(247, 149, 149); fill-opacity: 1;"/><text class="node-label" data-notex="1" x="0" y="0" text-anchor="start" transform="translate(19,2.875)" style="cursor: default; font-family: Arial, Helvetica, 'Microsoft YaHei'; font-size: 7.5px; fill: rgb(42, 63, 95); fill-opacity: 1; text-shadow: rgb(255, 255, 255) 1px 1px 1px, rgb(255, 255, 255) -1px -1px 1px, rgb(255, 255, 255) 1px -1px 1px, rgb(255, 255, 255) -1px 1px 1px; white-space: pre;">METED (PA)</text></g><g class="sankey-node" transform="translate(126.500,89.155)" style="opacity: 1;"><rect class="node-rect" width="16" height="0.5" style="stroke-width: 0; stroke: rgb(0, 0, 0); stroke-opacity: 0; fill: rgb(247, 156, 156); fill-opacity: 1;"/><text class="node-label" data-notex="1" x="0" y="0" text-anchor="start" transform="translate(19,2.875)" style="cursor: default; font-family: Arial, Helvetica, 'Microsoft YaHei'; font-size: 7.5px; fill: rgb(42, 63, 95); fill-opacity: 1; text-shadow: rgb(255, 255, 255) 1px 1px 1px, rgb(255, 255, 255) -1px -1px 1px, rgb(255, 255, 255) 1px -1px 1px, rgb(255, 255, 255) -1px 1px 1px; white-space: pre;">PECO (PA)</text></g><g class="sankey-node" transform="translate(126.500,120.335)" style="opacity: 1;"><rect class="node-rect" width="16" height="8.935027492751942" style="stroke-width: 0; stroke: rgb(0, 0, 0); stroke-opacity: 0; fill: rgb(248, 163, 163); fill-opacity: 1;"/><text class="node-label" data-notex="1" x="0" y="0" text-anchor="start" transform="translate(19,7.092513746375971)" style="cursor: default; font-family: Arial, Helvetica, 'Microsoft YaHei'; font-size: 7.5px; fill: rgb(42, 63, 95); fill-opacity: 1; text-shadow: rgb(255, 255, 255) 1px 1px 1px, rgb(255, 255, 255) -1px -1px 1px, rgb(255, 255, 255) 1px -1px 1px, rgb(255, 255, 255) -1px 1px 1px; white-space: pre;">PENELEC (PA)</text></g><g class="sankey-node" transform="translate(126.500,194.890)" style="opacity: 1;"><rect class="node-rect" width="16" height="0.5" style="stroke-width: 0; stroke: rgb(0, 0, 0); stroke-opacity: 0; fill: rgb(248, 170, 170); fill-opacity: 1;"/><text class="node-label" data-notex="1" x="0" y="0" text-anchor="start" transform="translate(19,2.875)" style="cursor: default; font-family: Arial, Helvetica, 'Microsoft YaHei'; font-size: 7.5px; fill: rgb(42, 63, 95); fill-opacity: 1; text-shadow: rgb(255, 255, 255) 1px 1px 1px, rgb(255, 255, 255) -1px -1px 1px, rgb(255, 255, 255) 1px -1px 1px, rgb(255, 255, 255) -1px 1px 1px; white-space: pre;">PEPCO (MD)</text></g><g class="sankey-node" transform="translate(126.500,139.641)" style="opacity: 1;"><rect class="node-rect" width="16" height="0.5" style="stroke-width: 0; stroke: rgb(0, 0, 0); stroke-opacity: 0; fill: rgb(249, 177, 177); fill-opacity: 1;"/><text class="node-label" data-notex="1" x="0" y="0" text-anchor="start" transform="translate(19,2.875)" style="cursor: default; font-family: Arial, Helvetica, 'Microsoft YaHei'; font-size: 7.5px; fill: rgb(42, 63, 95); fill-opacity: 1; text-shadow: rgb(255, 255, 255) 1px 1px 1px, rgb(255, 255, 255) -1px -1px 1px, rgb(255, 255, 255) 1px -1px 1px, rgb(255, 255, 255) -1px 1px 1px; white-space: pre;">PPL (PA)</text></g><g class="sankey-node" transform="translate(126.500,150.463)" style="opacity: 1;"><rect class="node-rect" width="16" height="0.5" style="stroke-width: 0; stroke: rgb(0, 0, 0); stroke-opacity: 0; fill: rgb(249, 184, 184); fill-opacity: 1;"/><text class="node-label" data-notex="1" x="0" y="0" text-anchor="start" transform="translate(19,2.875)" style="cursor: default; font-family: Arial, Helvetica, 'Microsoft YaHei'; font-size: 7.5px; fill: rgb(42, 63, 95); fill-opacity: 1; text-shadow: rgb(255, 255, 255) 1px 1px 1px, rgb(255, 255, 255) -1px -1px 1px, rgb(255, 255, 255) 1px -1px 1px, rgb(255, 255, 255) -1px 1px 1px; white-space: pre;">PSEG (NJ)</text></g><g class="sankey-node" transform="translate(126.500,99.567)" style="opacity: 1;"><rect class="node-rect" width="16" height="0.5" style="stroke-width: 0; stroke: rgb(0, 0, 0); stroke-opacity: 0; fill: rgb(250, 191, 191); fill-opacity: 1;"/><text class="node-label" data-notex="1" x="0" y="0" text-anchor="start" transform="translate(19,2.875)" style="cursor: default; font-family: Arial, Helvetica, 'Microsoft YaHei'; font-size: 7.5px; fill: rgb(42, 63, 95); fill-opacity: 1; text-shadow: rgb(255, 255, 255) 1px 1px 1px, rgb(255, 255, 255) -1px -1px 1px, rgb(255, 255, 255) 1px -1px 1px, rgb(255, 255, 255) -1px 1px 1px; white-space: pre;">RECO (NJ)</text></g><g class="sankey-node" transform="translate(253.000,141.183)" style="opacity: 1;"><rect class="node-rect" width="16" height="25.902468269430074" style="stroke-width: 0; stroke: rgb(0, 0, 0); stroke-opacity: 0; fill: rgb(108, 145, 194); fill-opacity: 1;"/><text class="node-label" data-notex="1" x="0" y="0" text-anchor="end" transform="translate(-3,0.9512341347150368)" style="cursor: default; font-family: Arial, Helvetica, 'Microsoft YaHei'; font-size: 7.5px; fill: rgb(42, 63, 95); fill-opacity: 1; text-shadow: rgb(255, 255, 255) 1px 1px 1px, rgb(255, 255, 255) -1px -1px 1px, rgb(255, 255, 255) 1px -1px 1px, rgb(255, 255, 255) -1px 1px 1px; white-space: pre;"><tspan class="line" dy="0em" x="0" y="0">DC</tspan><tspan class="line" dy="1.3em" x="0" y="0">Cost</tspan><tspan class="line" dy="2.6em" x="0" y="0">Allocation</tspan><tspan class="line" dy="3.9000000000000004em" x="0" y="0"> (123.9)</tspan></text></g><g class="sankey-node" transform="translate(253.000,80.534)" style="opacity: 1;"><rect class="node-rect" width="16" height="50.2780264605052" style="stroke-width: 0; stroke: rgb(0, 0, 0); stroke-opacity: 0; fill: rgb(175, 199, 120); fill-opacity: 1;"/><text class="node-label" data-notex="1" x="0" y="0" text-anchor="end" transform="translate(-3,13.139013230252601)" style="cursor: default; font-family: Arial, Helvetica, 'Microsoft YaHei'; font-size: 7.5px; fill: rgb(42, 63, 95); fill-opacity: 1; text-shadow: rgb(255, 255, 255) 1px 1px 1px, rgb(255, 255, 255) -1px -1px 1px, rgb(255, 255, 255) 1px -1px 1px, rgb(255, 255, 255) -1px 1px 1px; white-space: pre;"><tspan class="line" dy="0em" x="0" y="0">Residential User</tspan><tspan class="line" dy="1.3em" x="0" y="0">Cost</tspan><tspan class="line" dy="2.6em" x="0" y="0">Allocation</tspan><tspan class="line" dy="3.9000000000000004em" x="0" y="0"> (240.6)</tspan></text></g></g></g><defs id="topdefs-82845a"><g class="clips"/></defs><g class="layer-above"><g class="imagelayer"/><g class="shapelayer"/></g><g class="infolayer"><g class="g-gtitle"/><g class="first-render"/></g></svg>