<svg class="main-svg" xmlns="http://www.w3.org/2000/svg" xmlns:xlink="http://www.w3.org/1999/xlink" width="289" height="320" style="" viewBox="0 0 289 320"><rect x="0" y="0" width="289" height="320" style="fill: rgb(255, 255, 255); fill-opacity: 1;"/><defs id="defs-6093ed"><g class="clips"/><g class="gradients"/><g class="patterns"/></defs><g class="bglayer"/><g class="layer-below"><g class="imagelayer"/><g class="shapelayer"/></g><g class="cartesianlayer"/><g class="polarlayer"/><g class="smithlayer"/><g class="ternarylayer"/><g class="geolayer"/><g class="funnelarealayer"/><g class="pielayer"/><g class="iciclelayer"/><g class="treemaplayer"/><g class="sunburstlayer"/><g class="glimages"/><g class="sankey" transform="translate(10,30)matrix(1 0 0 1 0 0)" style="box-sizing: content-box; position: absolute; left: 0px; shape-rendering: geometricprecision; pointer-events: none;"><g class="sankey-links" style="fill: none;"><path class="sankey-link" d="M16,137.89578653298227C71.25,137.89578653298227 71.25,176.01975832746237 126.5,176.01975832746237L126.5,176.48827564316062C71.25,176.48827564316062 71.25,138.36430384868052 16,138.36430384868052Z" style="stroke: rgb(108, 145, 194); stroke-opacity: 0.2; fill: rgb(108, 145, 194); fill-opacity: 0.2; stroke-width: 1; opacity: 1;"/><path class="sankey-link" d="M16,130.65314321565617C71.25,130.65314321565617 71.25,157.98044197131415 126.5,157.98044197131415L126.5,165.22308528864025C71.25,165.22308528864025 71.25,137.89578653298227 16,137.89578653298227Z" style="stroke: rgb(68, 68, 68); stroke-opacity: 1; fill: rgb(108, 145, 194); fill-opacity: 0.2; stroke-width: 0; opacity: 1;"/><path class="sankey-link" d="M16,138.36430384868052C71.25,138.36430384868052 71.25,186.89330811810922 126.5,186.89330811810922L126.5,196.73329606671243C71.25,196.73329606671243 71.25,148.20429179728373 16,148.20429179728373Z" style="stroke: rgb(68, 68, 68); stroke-opacity: 1; fill: rgb(108, 145, 194); fill-opacity: 0.2; stroke-width: 0; opacity: 1;"/><path class="sankey-link" d="M16,121.96370427132237C71.25,121.96370427132237 71.25,117.59413838044887 126.5,117.59413838044887L126.5,123.54695038910282C71.25,123.54695038910282 71.25,127.91651627997632 16,127.91651627997632Z" style="stroke: rgb(68, 68, 68); stroke-opacity: 1; fill: rgb(108, 145, 194); fill-opacity: 0.2; stroke-width: 0; opacity: 1;"/><path class="sankey-link" d="M16,127.990636234974C71.25,127.990636234974 71.25,144.7092992153093 126.5,144.7092992153093L126.5,147.37180619599147C71.25,147.37180619599147 71.25,130.65314321565617 16,130.65314321565617Z" style="stroke: rgb(68, 68, 68); stroke-opacity: 1; fill: rgb(108, 145, 194); fill-opacity: 0.2; stroke-width: 0; opacity: 1;"/><path class="sankey-link" d="M16,113.01673141845984C71.25,113.01673141845984 71.25,56.10922546592205 126.5,56.10922546592205L126.5,60.036442426999855C71.25,60.036442426999855 71.25,116.94394837953763 16,116.94394837953763Z" style="stroke: rgb(68, 68, 68); stroke-opacity: 1; fill: rgb(108, 145, 194); fill-opacity: 0.2; stroke-width: 0; opacity: 1;"/><path class="sankey-link" d="M16,155.73608877103257C71.25,155.73608877103257 71.25,278.68612063499506 126.5,278.68612063499506L126.5,279.29965566212195C71.25,279.29965566212195 71.25,156.34962379815946 16,156.34962379815946Z" style="stroke: rgb(108, 145, 194); stroke-opacity: 0.2; fill: rgb(108, 145, 194); fill-opacity: 0.2; stroke-width: 1; opacity: 1;"/><path class="sankey-link" d="M16,148.20429179728373C71.25,148.20429179728373 71.25,208.35567368499125 126.5,208.35567368499125L126.5,209.29820575564992C71.25,209.29820575564992 71.25,149.1468238679424 16,149.1468238679424Z" style="stroke: rgb(108, 145, 194); stroke-opacity: 0.2; fill: rgb(108, 145, 194); fill-opacity: 0.2; stroke-width: 1; opacity: 1;"/><path class="sankey-link" d="M16,69.04551263051069C71.25,69.04551263051069 71.25,-1.4210854715202004e-14 126.5,-1.4210854715202004e-14L126.5,43.97121878794915C71.25,43.97121878794915 71.25,113.01673141845986 16,113.01673141845986Z" style="stroke: rgb(68, 68, 68); stroke-opacity: 1; fill: rgb(108, 145, 194); fill-opacity: 0.2; stroke-width: 0; opacity: 1;"/><path class="sankey-link" d="M16,121.0056831742252C71.25,121.0056831742252 71.25,106.17051174748875 126.5,106.17051174748875L126.5,107.12853284458592C71.25,107.12853284458592 71.25,121.96370427132237 16,121.96370427132237Z" style="stroke: rgb(108, 145, 194); stroke-opacity: 0.2; fill: rgb(108, 145, 194); fill-opacity: 0.2; stroke-width: 1; opacity: 1;"/><path class="sankey-link" d="M16,150.99677271847622C71.25,150.99677271847622 71.25,232.09542780019063 126.5,232.09542780019063L126.5,232.58447745949468C71.25,232.58447745949468 71.25,151.48582237778027 16,151.48582237778027Z" style="stroke: rgb(108, 145, 194); stroke-opacity: 0.2; fill: rgb(108, 145, 194); fill-opacity: 0.2; stroke-width: 1; opacity: 1;"/><path class="sankey-link" d="M16,119.87903187995961C71.25,119.87903187995961 71.25,94.59014974957327 126.5,94.59014974957327L126.5,95.71680104383884C71.25,95.71680104383884 71.25,121.00568317422518 16,121.00568317422518Z" style="stroke: rgb(68, 68, 68); stroke-opacity: 1; fill: rgb(108, 145, 194); fill-opacity: 0.2; stroke-width: 0; opacity: 1;"/><path class="sankey-link" d="M16,151.48582237778024C71.25,151.48582237778024 71.25,242.99101209658505 126.5,242.99101209658505L126.5,243.54839372773228C71.25,243.54839372773228 71.25,152.04320400892746 16,152.04320400892746Z" style="stroke: rgb(108, 145, 194); stroke-opacity: 0.2; fill: rgb(108, 145, 194); fill-opacity: 0.2; stroke-width: 1; opacity: 1;"/><path class="sankey-link" d="M16,118.30143167627246C71.25,118.30143167627246 71.25,82.52545972242578 126.5,82.52545972242578L126.5,84.10305992611293C71.25,84.10305992611293 71.25,119.87903187995961 16,119.87903187995961Z" style="stroke: rgb(68, 68, 68); stroke-opacity: 1; fill: rgb(108, 145, 194); fill-opacity: 0.2; stroke-width: 0; opacity: 1;"/><path class="sankey-link" d="M16,152.04320400892743C71.25,152.04320400892743 71.25,253.95999350403355 126.5,253.95999350403355L126.5,254.4964661606034C71.25,254.4964661606034 71.25,152.5796766654973 16,152.5796766654973Z" style="stroke: rgb(108, 145, 194); stroke-opacity: 0.2; fill: rgb(108, 145, 194); fill-opacity: 0.2; stroke-width: 1; opacity: 1;"/><path class="sankey-link" d="M16,152.57967666549732C71.25,152.57967666549732 71.25,264.9065076356788 126.5,264.9065076356788L126.5,268.062919741214C71.25,268.062919741214 71.25,155.73608877103257 16,155.73608877103257Z" style="stroke: rgb(68, 68, 68); stroke-opacity: 1; fill: rgb(108, 145, 194); fill-opacity: 0.2; stroke-width: 0; opacity: 1;"/><path class="sankey-link" d="M16,116.94394837953764C71.25,116.94394837953764 71.25,70.69722281800077 126.5,70.69722281800077L126.5,72.05470611473558C71.25,72.05470611473558 71.25,118.30143167627246 16,118.30143167627246Z" style="stroke: rgb(68, 68, 68); stroke-opacity: 1; fill: rgb(108, 145, 194); fill-opacity: 0.2; stroke-width: 0; opacity: 1;"/><path class="sankey-link" d="M16,149.1468238679424C71.25,149.1468238679424 71.25,219.73827453097164 126.5,219.73827453097164L126.5,221.58822338150543C71.25,221.58822338150543 71.25,150.9967727184762 16,150.9967727184762Z" style="stroke: rgb(68, 68, 68); stroke-opacity: 1; fill: rgb(108, 145, 194); fill-opacity: 0.2; stroke-width: 0; opacity: 1;"/><path class="sankey-link" d="M16,127.91651627997632C71.25,127.91651627997632 71.25,134.25932624764206 126.5,134.25932624764206L126.5,134.33344620263975C71.25,134.33344620263975 71.25,127.990636234974 16,127.990636234974Z" style="stroke: rgb(108, 145, 194); stroke-opacity: 0.2; fill: rgb(108, 145, 194); fill-opacity: 0.2; stroke-width: 1; opacity: 1;"/><path class="sankey-link" d="M16,170.18577488981688C71.25,170.18577488981688 71.25,176.48827564316062 126.5,176.48827564316062L126.5,176.52293774773884C71.25,176.52293774773884 71.25,170.2204369943951 16,170.2204369943951Z" style="stroke: rgb(175, 199, 120); stroke-opacity: 0.2; fill: rgb(175, 199, 120); fill-opacity: 0.2; stroke-width: 1; opacity: 1;"/><path class="sankey-link" d="M16,169.75947222136514C71.25,169.75947222136514 71.25,165.22308528864025 126.5,165.22308528864025L126.5,165.649387957092C71.25,165.649387957092 71.25,170.18577488981688 16,170.18577488981688Z" style="stroke: rgb(175, 199, 120); stroke-opacity: 0.2; fill: rgb(175, 199, 120); fill-opacity: 0.2; stroke-width: 1; opacity: 1;"/><path class="sankey-link" d="M16,170.2204369943951C71.25,170.2204369943951 71.25,196.73329606671243 126.5,196.73329606671243L126.5,197.98530331462078C71.25,197.98530331462078 71.25,171.47244424230345 16,171.47244424230345Z" style="stroke: rgb(68, 68, 68); stroke-opacity: 1; fill: rgb(175, 199, 120); fill-opacity: 0.2; stroke-width: 0; opacity: 1;"/><path class="sankey-link" d="M16,169.17371868594483C71.25,169.17371868594483 71.25,123.54695038910282 126.5,123.54695038910282L126.5,123.88895587727166C71.25,123.88895587727166 71.25,169.5157241741137 16,169.5157241741137Z" style="stroke: rgb(175, 199, 120); stroke-opacity: 0.2; fill: rgb(175, 199, 120); fill-opacity: 0.2; stroke-width: 1; opacity: 1;"/><path class="sankey-link" d="M16,169.52120681641284C71.25,169.52120681641284 71.25,147.37180619599147 126.5,147.37180619599147L126.5,147.61007160094377C71.25,147.61007160094377 71.25,169.75947222136514 16,169.75947222136514Z" style="stroke: rgb(175, 199, 120); stroke-opacity: 0.2; fill: rgb(175, 199, 120); fill-opacity: 0.2; stroke-width: 1; opacity: 1;"/><path class="sankey-link" d="M16,168.48763047613238C71.25,168.48763047613238 71.25,60.036442426999855 126.5,60.036442426999855L126.5,60.326852447630415C71.25,60.326852447630415 71.25,168.7780404967629 16,168.7780404967629Z" style="stroke: rgb(175, 199, 120); stroke-opacity: 0.2; fill: rgb(175, 199, 120); fill-opacity: 0.2; stroke-width: 1; opacity: 1;"/><path class="sankey-link" d="M16,172.04887199633623C71.25,172.04887199633623 71.25,279.29965566212195 126.5,279.29965566212195L126.5,280C71.25,280 71.25,172.74921633421434 16,172.74921633421434Z" style="stroke: rgb(175, 199, 120); stroke-opacity: 0.2; fill: rgb(175, 199, 120); fill-opacity: 0.2; stroke-width: 1; opacity: 1;"/><path class="sankey-link" d="M16,171.47244424230348C71.25,171.47244424230348 71.25,209.29820575564992 126.5,209.29820575564992L126.5,209.36790416060126C71.25,209.36790416060126 71.25,171.54214264725482 16,171.54214264725482Z" style="stroke: rgb(175, 199, 120); stroke-opacity: 0.2; fill: rgb(175, 199, 120); fill-opacity: 0.2; stroke-width: 1; opacity: 1;"/><path class="sankey-link" d="M16,166.71999416852975C71.25,166.71999416852975 71.25,43.97121878794915 126.5,43.97121878794915L126.5,45.73885509555178C71.25,45.73885509555178 71.25,168.48763047613238 16,168.48763047613238Z" style="stroke: rgb(68, 68, 68); stroke-opacity: 1; fill: rgb(175, 199, 120); fill-opacity: 0.2; stroke-width: 0; opacity: 1;"/><path class="sankey-link" d="M16,169.07848352045227C71.25,169.07848352045227 71.25,107.12853284458593 126.5,107.12853284458593L126.5,107.2237680100785C71.25,107.2237680100785 71.25,169.17371868594483 16,169.17371868594483Z" style="stroke: rgb(175, 199, 120); stroke-opacity: 0.2; fill: rgb(175, 199, 120); fill-opacity: 0.2; stroke-width: 1; opacity: 1;"/><path class="sankey-link" d="M16,171.67897669556965C71.25,171.67897669556965 71.25,232.58447745949465 126.5,232.58447745949465L126.5,232.6206417262147C71.25,232.6206417262147 71.25,171.7151409622897 16,171.7151409622897Z" style="stroke: rgb(175, 199, 120); stroke-opacity: 0.2; fill: rgb(175, 199, 120); fill-opacity: 0.2; stroke-width: 1; opacity: 1;"/><path class="sankey-link" d="M16,168.99514318717274C71.25,168.99514318717274 71.25,95.71680104383884 126.5,95.71680104383884L126.5,95.80014137711836C71.25,95.80014137711836 71.25,169.07848352045227 16,169.07848352045227Z" style="stroke: rgb(175, 199, 120); stroke-opacity: 0.2; fill: rgb(175, 199, 120); fill-opacity: 0.2; stroke-width: 1; opacity: 1;"/><path class="sankey-link" d="M16,171.71514096228967C71.25,171.71514096228967 71.25,243.54839372773225 126.5,243.54839372773225L126.5,243.58962313366314C71.25,243.58962313366314 71.25,171.75637036822056 16,171.75637036822056Z" style="stroke: rgb(175, 199, 120); stroke-opacity: 0.2; fill: rgb(175, 199, 120); fill-opacity: 0.2; stroke-width: 1; opacity: 1;"/><path class="sankey-link" d="M16,168.8784237340828C71.25,168.8784237340828 71.25,84.10305992611293 126.5,84.10305992611293L126.5,84.21977937920289C71.25,84.21977937920289 71.25,168.99514318717274 16,168.99514318717274Z" style="stroke: rgb(175, 199, 120); stroke-opacity: 0.2; fill: rgb(175, 199, 120); fill-opacity: 0.2; stroke-width: 1; opacity: 1;"/><path class="sankey-link" d="M16,171.75637036822056C71.25,171.75637036822056 71.25,254.49646616060343 126.5,254.49646616060343L126.5,254.53613726530844C71.25,254.53613726530844 71.25,171.79604147292557 16,171.79604147292557Z" style="stroke: rgb(175, 199, 120); stroke-opacity: 0.2; fill: rgb(175, 199, 120); fill-opacity: 0.2; stroke-width: 1; opacity: 1;"/><path class="sankey-link" d="M16,171.79604147292557C71.25,171.79604147292557 71.25,268.06291974121405 126.5,268.06291974121405L126.5,268.31575026462474C71.25,268.31575026462474 71.25,172.04887199633626 16,172.04887199633626Z" style="stroke: rgb(175, 199, 120); stroke-opacity: 0.2; fill: rgb(175, 199, 120); fill-opacity: 0.2; stroke-width: 1; opacity: 1;"/><path class="sankey-link" d="M16,168.77804049676294C71.25,168.77804049676294 71.25,72.05470611473558 126.5,72.05470611473558L126.5,72.15508935205543C71.25,72.15508935205543 71.25,168.87842373408276 16,168.87842373408276Z" style="stroke: rgb(175, 199, 120); stroke-opacity: 0.2; fill: rgb(175, 199, 120); fill-opacity: 0.2; stroke-width: 1; opacity: 1;"/><path class="sankey-link" d="M16,171.54214264725482C71.25,171.54214264725482 71.25,221.58822338150546 126.5,221.58822338150546L126.5,221.72505742982028C71.25,221.72505742982028 71.25,171.67897669556965 16,171.67897669556965Z" style="stroke: rgb(175, 199, 120); stroke-opacity: 0.2; fill: rgb(175, 199, 120); fill-opacity: 0.2; stroke-width: 1; opacity: 1;"/><path class="sankey-link" d="M16,169.51572417411367C71.25,169.51572417411367 71.25,134.33344620263975 126.5,134.33344620263975L126.5,134.33892884493892C71.25,134.33892884493892 71.25,169.52120681641284 16,169.52120681641284Z" style="stroke: rgb(175, 199, 120); stroke-opacity: 0.2; fill: rgb(175, 199, 120); fill-opacity: 0.2; stroke-width: 1; opacity: 1;"/><path class="sankey-link" d="M142.5,176.35333710616527C197.75,176.35333710616527 197.75,162.63625589436555 253,162.63625589436555L253,162.73844756950024C197.75,162.73844756950024 197.75,176.45552878129996 142.5,176.45552878129996Z" style="stroke: rgb(108, 145, 194); stroke-opacity: 0.2; fill: rgb(108, 145, 194); fill-opacity: 0.2; stroke-width: 1; opacity: 1;"/><path class="sankey-link" d="M142.5,176.01975832746237C197.75,176.01975832746237 197.75,121.25753214574742 253,121.25753214574742L253,121.59111092445032C197.75,121.59111092445032 197.75,176.3533371061653 142.5,176.3533371061653Z" style="stroke: rgb(175, 199, 120); stroke-opacity: 0.2; fill: rgb(175, 199, 120); fill-opacity: 0.2; stroke-width: 1; opacity: 1;"/><path class="sankey-link" d="M142.5,161.61603680533776C197.75,161.61603680533776 197.75,159.96927341950968 253,159.96927341950968L253,162.63625589436558C197.75,162.63625589436558 197.75,164.28301928019366 142.5,164.28301928019366Z" style="stroke: rgb(68, 68, 68); stroke-opacity: 1; fill: rgb(108, 145, 194); fill-opacity: 0.2; stroke-width: 0; opacity: 1;"/><path class="sankey-link" d="M142.5,157.98044197131415C197.75,157.98044197131415 197.75,117.6219373117238 253,117.6219373117238L253,121.2575321457474C197.75,121.2575321457474 197.75,161.61603680533776 142.5,161.61603680533776Z" style="stroke: rgb(68, 68, 68); stroke-opacity: 1; fill: rgb(175, 199, 120); fill-opacity: 0.2; stroke-width: 0; opacity: 1;"/><path class="sankey-link" d="M142.5,191.99562590850454C197.75,191.99562590850454 197.75,162.73844756950027 253,162.73844756950027L253,167.06432569613978C197.75,167.06432569613978 197.75,196.32150403514405 142.5,196.32150403514405Z" style="stroke: rgb(68, 68, 68); stroke-opacity: 1; fill: rgb(108, 145, 194); fill-opacity: 0.2; stroke-width: 0; opacity: 1;"/><path class="sankey-link" d="M142.5,186.89330811810922C197.75,186.89330811810922 197.75,121.59111092445033 253,121.59111092445033L253,126.69342871484565C197.75,126.69342871484565 197.75,191.99562590850454 142.5,191.99562590850454Z" style="stroke: rgb(68, 68, 68); stroke-opacity: 1; fill: rgb(175, 199, 120); fill-opacity: 0.2; stroke-width: 0; opacity: 1;"/><path class="sankey-link" d="M142.5,120.54326037771034C197.75,120.54326037771034 197.75,157.79210561937225 253,157.79210561937225L253,159.3066387091078C197.75,159.3066387091078 197.75,122.05779346744589 142.5,122.05779346744589Z" style="stroke: rgb(68, 68, 68); stroke-opacity: 1; fill: rgb(108, 145, 194); fill-opacity: 0.2; stroke-width: 0; opacity: 1;"/><path class="sankey-link" d="M142.5,117.59413838044887C197.75,117.59413838044887 197.75,112.80887745658247 253,112.80887745658247L253,115.75799945384394C197.75,115.75799945384394 197.75,120.54326037771034 142.5,120.54326037771034Z" style="stroke: rgb(68, 68, 68); stroke-opacity: 1; fill: rgb(175, 199, 120); fill-opacity: 0.2; stroke-width: 0; opacity: 1;"/><path class="sankey-link" d="M142.5,146.52322276130752C197.75,146.52322276130752 197.75,159.315968133511 253,159.315968133511L253,159.96927341950968C197.75,159.96927341950968 197.75,147.1765280473062 142.5,147.1765280473062Z" style="stroke: rgb(108, 145, 194); stroke-opacity: 0.2; fill: rgb(108, 145, 194); fill-opacity: 0.2; stroke-width: 1; opacity: 1;"/><path class="sankey-link" d="M142.5,144.7092992153093C197.75,144.7092992153093 197.75,115.80801376572558 253,115.80801376572558L253,117.6219373117238C197.75,117.6219373117238 197.75,146.5232227613075 142.5,146.5232227613075Z" style="stroke: rgb(68, 68, 68); stroke-opacity: 1; fill: rgb(175, 199, 120); fill-opacity: 0.2; stroke-width: 0; opacity: 1;"/><path class="sankey-link" d="M142.5,58.16268719959521C197.75,58.16268719959521 197.75,157.46051154668555 253,157.46051154668555L253,157.4924789764151C197.75,157.4924789764151 197.75,58.19465462932473 142.5,58.19465462932473Z" style="stroke: rgb(108, 145, 194); stroke-opacity: 0.2; fill: rgb(108, 145, 194); fill-opacity: 0.2; stroke-width: 1; opacity: 1;"/><path class="sankey-link" d="M142.5,56.10922546592205C197.75,56.10922546592205 197.75,107.00600380570687 253,107.00600380570687L253,109.05946553938001C197.75,109.05946553938001 197.75,58.16268719959521 142.5,58.16268719959521Z" style="stroke: rgb(68, 68, 68); stroke-opacity: 1; fill: rgb(175, 199, 120); fill-opacity: 0.2; stroke-width: 0; opacity: 1;"/><path class="sankey-link" d="M142.5,279.30666585908693C197.75,279.30666585908693 197.75,169.97840132884383 253,169.97840132884383L253,170.30082732501606C197.75,170.30082732501606 197.75,279.62909185525916 142.5,279.62909185525916Z" style="stroke: rgb(108, 145, 194); stroke-opacity: 0.2; fill: rgb(108, 145, 194); fill-opacity: 0.2; stroke-width: 1; opacity: 1;"/><path class="sankey-link" d="M142.5,278.68612063499506C197.75,278.68612063499506 197.75,131.14316607877146 253,131.14316607877146L253,131.76371130286333C197.75,131.76371130286333 197.75,279.30666585908693 142.5,279.30666585908693Z" style="stroke: rgb(175, 199, 120); stroke-opacity: 0.2; fill: rgb(175, 199, 120); fill-opacity: 0.2; stroke-width: 1; opacity: 1;"/><path class="sankey-link" d="M142.5,208.848518581261C197.75,208.848518581261 197.75,167.06432569613978 253,167.06432569613978L253,167.2367389130504C197.75,167.2367389130504 197.75,209.02093179817163 142.5,209.02093179817163Z" style="stroke: rgb(108, 145, 194); stroke-opacity: 0.2; fill: rgb(108, 145, 194); fill-opacity: 0.2; stroke-width: 1; opacity: 1;"/><path class="sankey-link" d="M142.5,208.35567368499125C197.75,208.35567368499125 197.75,126.69342871484567 253,126.69342871484567L253,127.18627361111542C197.75,127.18627361111542 197.75,208.84851858126098 142.5,208.84851858126098Z" style="stroke: rgb(175, 199, 120); stroke-opacity: 0.2; fill: rgb(175, 199, 120); fill-opacity: 0.2; stroke-width: 1; opacity: 1;"/><path class="sankey-link" d="M142.5,22.080286847818424C197.75,22.080286847818424 197.75,142.13408167323374 253,142.13408167323374L253,157.46051154668558C197.75,157.46051154668558 197.75,37.40671672127025 142.5,37.40671672127025Z" style="stroke: rgb(68, 68, 68); stroke-opacity: 1; fill: rgb(108, 145, 194); fill-opacity: 0.2; stroke-width: 0; opacity: 1;"/><path class="sankey-link" d="M142.5,-1.4210854715202004e-14C197.75,-1.4210854715202004e-14 197.75,84.92571695788843 253,84.92571695788843L253,107.00600380570685C197.75,107.00600380570685 197.75,22.080286847818424 142.5,22.080286847818424Z" style="stroke: rgb(68, 68, 68); stroke-opacity: 1; fill: rgb(175, 199, 120); fill-opacity: 0.2; stroke-width: 0; opacity: 1;"/><path class="sankey-link" d="M142.5,106.94801347365335C197.75,106.94801347365335 197.75,157.6744511699045 253,157.6744511699045L253,157.79210561937225C197.75,157.79210561937225 197.75,107.0656679231211 142.5,107.0656679231211Z" style="stroke: rgb(108, 145, 194); stroke-opacity: 0.2; fill: rgb(108, 145, 194); fill-opacity: 0.2; stroke-width: 1; opacity: 1;"/><path class="sankey-link" d="M142.5,106.17051174748875C197.75,106.17051174748875 197.75,112.03137573041786 253,112.03137573041786L253,112.80887745658248C197.75,112.80887745658248 197.75,106.94801347365336 142.5,106.94801347365336Z" style="stroke: rgb(175, 199, 120); stroke-opacity: 0.2; fill: rgb(175, 199, 120); fill-opacity: 0.2; stroke-width: 1; opacity: 1;"/><path class="sankey-link" d="M142.5,232.35155827660006C197.75,232.35155827660006 197.75,167.90735953693095 253,167.90735953693095L253,168.06050525824057C197.75,168.06050525824057 197.75,232.50470399790967 142.5,232.50470399790967Z" style="stroke: rgb(108, 145, 194); stroke-opacity: 0.2; fill: rgb(108, 145, 194); fill-opacity: 0.2; stroke-width: 1; opacity: 1;"/><path class="sankey-link" d="M142.5,232.09542780019063C197.75,232.09542780019063 197.75,128.48426082238066 253,128.48426082238066L253,128.74039129879006C197.75,128.74039129879006 197.75,232.35155827660003 142.5,232.35155827660003Z" style="stroke: rgb(175, 199, 120); stroke-opacity: 0.2; fill: rgb(175, 199, 120); fill-opacity: 0.2; stroke-width: 1; opacity: 1;"/><path class="sankey-link" d="M142.5,95.69176387401009C197.75,95.69176387401009 197.75,157.56607366679623 253,157.56607366679623L253,157.6744511699045C197.75,157.6744511699045 197.75,95.80014137711836 142.5,95.80014137711836Z" style="stroke: rgb(108, 145, 194); stroke-opacity: 0.2; fill: rgb(108, 145, 194); fill-opacity: 0.2; stroke-width: 1; opacity: 1;"/><path class="sankey-link" d="M142.5,94.59014974957327C197.75,94.59014974957327 197.75,110.92976160598104 253,110.92976160598104L253,112.03137573041786C197.75,112.03137573041786 197.75,95.69176387401009 142.5,95.69176387401009Z" style="stroke: rgb(68, 68, 68); stroke-opacity: 1; fill: rgb(175, 199, 120); fill-opacity: 0.2; stroke-width: 0; opacity: 1;"/><path class="sankey-link" d="M142.5,243.30228983586565C197.75,243.30228983586565 197.75,168.06050525824054 253,168.06050525824054L253,168.25206079010553C197.75,168.25206079010553 197.75,243.49384536773064 142.5,243.49384536773064Z" style="stroke: rgb(108, 145, 194); stroke-opacity: 0.2; fill: rgb(108, 145, 194); fill-opacity: 0.2; stroke-width: 1; opacity: 1;"/><path class="sankey-link" d="M142.5,242.99101209658505C197.75,242.99101209658505 197.75,128.7403912987901 253,128.7403912987901L253,129.0516690380707C197.75,129.0516690380707 197.75,243.30228983586568 142.5,243.30228983586568Z" style="stroke: rgb(175, 199, 120); stroke-opacity: 0.2; fill: rgb(175, 199, 120); fill-opacity: 0.2; stroke-width: 1; opacity: 1;"/><path class="sankey-link" d="M142.5,83.22217322911278C197.75,83.22217322911278 197.75,157.52863406645963 253,157.52863406645963L253,157.56607366679623C197.75,157.56607366679623 197.75,83.25961282944938 142.5,83.25961282944938Z" style="stroke: rgb(108, 145, 194); stroke-opacity: 0.2; fill: rgb(108, 145, 194); fill-opacity: 0.2; stroke-width: 1; opacity: 1;"/><path class="sankey-link" d="M142.5,82.52545972242578C197.75,82.52545972242578 197.75,110.23304809929404 253,110.23304809929404L253,110.92976160598103C197.75,110.92976160598103 197.75,83.22217322911277 142.5,83.22217322911277Z" style="stroke: rgb(175, 199, 120); stroke-opacity: 0.2; fill: rgb(175, 199, 120); fill-opacity: 0.2; stroke-width: 1; opacity: 1;"/><path class="sankey-link" d="M142.5,254.25958825989647C197.75,254.25958825989647 197.75,168.25206079010553 253,168.25206079010553L253,168.4364267937135C197.75,168.4364267937135 197.75,254.44395426350445 142.5,254.44395426350445Z" style="stroke: rgb(108, 145, 194); stroke-opacity: 0.2; fill: rgb(108, 145, 194); fill-opacity: 0.2; stroke-width: 1; opacity: 1;"/><path class="sankey-link" d="M142.5,253.95999350403355C197.75,253.95999350403355 197.75,129.05166903807068 253,129.05166903807068L253,129.3512637939336C197.75,129.3512637939336 197.75,254.25958825989647 142.5,254.25958825989647Z" style="stroke: rgb(175, 199, 120); stroke-opacity: 0.2; fill: rgb(175, 199, 120); fill-opacity: 0.2; stroke-width: 1; opacity: 1;"/><path class="sankey-link" d="M142.5,266.6984099205166C197.75,266.6984099205166 197.75,168.43642679371348 253,168.43642679371348L253,169.97840132884383C197.75,169.97840132884383 197.75,268.240384455647 142.5,268.240384455647Z" style="stroke: rgb(68, 68, 68); stroke-opacity: 1; fill: rgb(108, 145, 194); fill-opacity: 0.2; stroke-width: 0; opacity: 1;"/><path class="sankey-link" d="M142.5,264.9065076356788C197.75,264.9065076356788 197.75,129.3512637939336 253,129.3512637939336L253,131.14316607877143C197.75,131.14316607877143 197.75,266.69840992051667 142.5,266.69840992051667Z" style="stroke: rgb(68, 68, 68); stroke-opacity: 1; fill: rgb(175, 199, 120); fill-opacity: 0.2; stroke-width: 0; opacity: 1;"/><path class="sankey-link" d="M142.5,71.87080537791478C197.75,71.87080537791478 197.75,157.49247897641507 253,157.49247897641507L253,157.5286340664596C197.75,157.5286340664596 197.75,71.90696046795934 142.5,71.90696046795934Z" style="stroke: rgb(108, 145, 194); stroke-opacity: 0.2; fill: rgb(108, 145, 194); fill-opacity: 0.2; stroke-width: 1; opacity: 1;"/><path class="sankey-link" d="M142.5,70.69722281800077C197.75,70.69722281800077 197.75,109.05946553938003 253,109.05946553938003L253,110.23304809929402C197.75,110.23304809929402 197.75,71.87080537791476 142.5,71.87080537791476Z" style="stroke: rgb(68, 68, 68); stroke-opacity: 1; fill: rgb(175, 199, 120); fill-opacity: 0.2; stroke-width: 0; opacity: 1;"/><path class="sankey-link" d="M142.5,221.03626174223686C197.75,221.03626174223686 197.75,167.23673891305043 253,167.23673891305043L253,167.90735953693093C197.75,167.90735953693093 197.75,221.70688236611736 142.5,221.70688236611736Z" style="stroke: rgb(108, 145, 194); stroke-opacity: 0.2; fill: rgb(108, 145, 194); fill-opacity: 0.2; stroke-width: 1; opacity: 1;"/><path class="sankey-link" d="M142.5,219.73827453097164C197.75,219.73827453097164 197.75,127.18627361111542 253,127.18627361111542L253,128.48426082238066C197.75,128.48426082238066 197.75,221.0362617422369 142.5,221.0362617422369Z" style="stroke: rgb(68, 68, 68); stroke-opacity: 1; fill: rgb(175, 199, 120); fill-opacity: 0.2; stroke-width: 0; opacity: 1;"/><path class="sankey-link" d="M142.5,134.3093405595237C197.75,134.3093405595237 197.75,159.3066387091078 253,159.3066387091078L253,159.31596813351098C197.75,159.31596813351098 197.75,134.31866998392687 142.5,134.31866998392687Z" style="stroke: rgb(108, 145, 194); stroke-opacity: 0.2; fill: rgb(108, 145, 194); fill-opacity: 0.2; stroke-width: 1; opacity: 1;"/><path class="sankey-link" d="M142.5,134.25932624764206C197.75,134.25932624764206 197.75,115.75799945384395 253,115.75799945384395L253,115.80801376572558C197.75,115.80801376572558 197.75,134.3093405595237 142.5,134.3093405595237Z" style="stroke: rgb(175, 199, 120); stroke-opacity: 0.2; fill: rgb(175, 199, 120); fill-opacity: 0.2; stroke-width: 1; opacity: 1;"/></g><g class="sankey-node-set" style="cursor: move;"><g class="sankey-node" transform="translate(0.000,69.046)" style="opacity: 1;"><rect class="node-rect" width="16" height="87.30411116764868" style="stroke-width: 0; stroke: rgb(0, 0, 0); stroke-opacity: 0; fill: rgb(108, 145, 194); fill-opacity: 1;"/><text class="node-label" data-notex="1" x="0" y="0" text-anchor="start" transform="translate(19,36.52705558382434)" style="cursor: default; font-family: Arial, Helvetica, 'Microsoft YaHei'; font-size: 7.5px; fill: rgb(42, 63, 95); fill-opacity: 1; text-shadow: rgb(255, 255, 255) 1px 1px 1px, rgb(255, 255, 255) -1px -1px 1px, rgb(255, 255, 255) 1px -1px 1px, rgb(255, 255, 255) -1px 1px 1px; white-space: pre;"><tspan class="line" dy="0em" x="0" y="0">DC</tspan><tspan class="line" dy="1.3em" x="0" y="0">Cost Attribution</tspan><tspan class="line" dy="2.6em" x="0" y="0"> (4931.9)</tspan></text></g><g class="sankey-node" transform="translate(0.000,166.720)" style="opacity: 1;"><rect class="node-rect" width="16" height="6.02922216568453" style="stroke-width: 0; stroke: rgb(0, 0, 0); stroke-opacity: 0; fill: rgb(175, 199, 120); fill-opacity: 1;"/><text class="node-label" data-notex="1" x="0" y="0" text-anchor="start" transform="translate(19,-4.110388917157736)" style="cursor: default; font-family: Arial, Helvetica, 'Microsoft YaHei'; font-size: 7.5px; fill: rgb(42, 63, 95); fill-opacity: 1; text-shadow: rgb(255, 255, 255) 1px 1px 1px, rgb(255, 255, 255) -1px -1px 1px, rgb(255, 255, 255) 1px -1px 1px, rgb(255, 255, 255) -1px 1px 1px; white-space: pre;"><tspan class="line" dy="0em" x="0" y="0">Non-DC</tspan><tspan class="line" dy="1.3em" x="0" y="0">Cost Attribution</tspan><tspan class="line" dy="2.6em" x="0" y="0"> (340.6)</tspan></text></g><g class="sankey-node" transform="translate(126.500,176.020)" style="opacity: 1;"><rect class="node-rect" width="16" height="0.5031794202764672" style="stroke-width: 0; stroke: rgb(0, 0, 0); stroke-opacity: 0; fill: rgb(240, 65, 64); fill-opacity: 1;"/><text class="node-label" data-notex="1" x="0" y="0" text-anchor="start" transform="translate(19,2.8765897101382336)" style="cursor: default; font-family: Arial, Helvetica, 'Microsoft YaHei'; font-size: 7.5px; fill: rgb(42, 63, 95); fill-opacity: 1; text-shadow: rgb(255, 255, 255) 1px 1px 1px, rgb(255, 255, 255) -1px -1px 1px, rgb(255, 255, 255) 1px -1px 1px, rgb(255, 255, 255) -1px 1px 1px; white-space: pre;">AECO (NJ)</text></g><g class="sankey-node" transform="translate(126.500,157.980)" style="opacity: 1;"><rect class="node-rect" width="16" height="7.668945985777839" style="stroke-width: 0; stroke: rgb(0, 0, 0); stroke-opacity: 0; fill: rgb(241, 72, 71); fill-opacity: 1;"/><text class="node-label" data-notex="1" x="0" y="0" text-anchor="start" transform="translate(19,6.459472992888919)" style="cursor: default; font-family: Arial, Helvetica, 'Microsoft YaHei'; font-size: 7.5px; fill: rgb(42, 63, 95); fill-opacity: 1; text-shadow: rgb(255, 255, 255) 1px 1px 1px, rgb(255, 255, 255) -1px -1px 1px, rgb(255, 255, 255) 1px -1px 1px, rgb(255, 255, 255) -1px 1px 1px; white-space: pre;">AEP (VA,OH)</text></g><g class="sankey-node" transform="translate(126.500,186.893)" style="opacity: 1;"><rect class="node-rect" width="16" height="11.091995196511675" style="stroke-width: 0; stroke: rgb(0, 0, 0); stroke-opacity: 0; fill: rgb(241, 79, 78); fill-opacity: 1;"/><text class="node-label" data-notex="1" x="0" y="0" text-anchor="start" transform="translate(19,8.170997598255838)" style="cursor: default; font-family: Arial, Helvetica, 'Microsoft YaHei'; font-size: 7.5px; fill: rgb(42, 63, 95); fill-opacity: 1; text-shadow: rgb(255, 255, 255) 1px 1px 1px, rgb(255, 255, 255) -1px -1px 1px, rgb(255, 255, 255) 1px -1px 1px, rgb(255, 255, 255) -1px 1px 1px; white-space: pre;">APS (PA)</text></g><g class="sankey-node" transform="translate(126.500,117.594)" style="opacity: 1;"><rect class="node-rect" width="16" height="6.294817496822816" style="stroke-width: 0; stroke: rgb(0, 0, 0); stroke-opacity: 0; fill: rgb(242, 86, 85); fill-opacity: 1;"/><text class="node-label" data-notex="1" x="0" y="0" text-anchor="start" transform="translate(19,5.772408748411408)" style="cursor: default; font-family: Arial, Helvetica, 'Microsoft YaHei'; font-size: 7.5px; fill: rgb(42, 63, 95); fill-opacity: 1; text-shadow: rgb(255, 255, 255) 1px 1px 1px, rgb(255, 255, 255) -1px -1px 1px, rgb(255, 255, 255) 1px -1px 1px, rgb(255, 255, 255) -1px 1px 1px; white-space: pre;">ATSI (OH)</text></g><g class="sankey-node" transform="translate(126.500,144.709)" style="opacity: 1;"><rect class="node-rect" width="16" height="2.9007723856344683" style="stroke-width: 0; stroke: rgb(0, 0, 0); stroke-opacity: 0; fill: rgb(242, 93, 92); fill-opacity: 1;"/><text class="node-label" data-notex="1" x="0" y="0" text-anchor="start" transform="translate(19,4.075386192817234)" style="cursor: default; font-family: Arial, Helvetica, 'Microsoft YaHei'; font-size: 7.5px; fill: rgb(42, 63, 95); fill-opacity: 1; text-shadow: rgb(255, 255, 255) 1px 1px 1px, rgb(255, 255, 255) -1px -1px 1px, rgb(255, 255, 255) 1px -1px 1px, rgb(255, 255, 255) -1px 1px 1px; white-space: pre;">BGE (MD)</text></g><g class="sankey-node" transform="translate(126.500,56.109)" style="opacity: 1;"><rect class="node-rect" width="16" height="4.217626981708349" style="stroke-width: 0; stroke: rgb(0, 0, 0); stroke-opacity: 0; fill: rgb(243, 100, 99); fill-opacity: 1;"/><text class="node-label" data-notex="1" x="0" y="0" text-anchor="start" transform="translate(19,4.733813490854175)" style="cursor: default; font-family: Arial, Helvetica, 'Microsoft YaHei'; font-size: 7.5px; fill: rgb(42, 63, 95); fill-opacity: 1; text-shadow: rgb(255, 255, 255) 1px 1px 1px, rgb(255, 255, 255) -1px -1px 1px, rgb(255, 255, 255) 1px -1px 1px, rgb(255, 255, 255) -1px 1px 1px; white-space: pre;">COMED (IL)</text></g><g class="sankey-node" transform="translate(126.500,278.686)" style="opacity: 1;"><rect class="node-rect" width="16" height="1.3138793650049365" style="stroke-width: 0; stroke: rgb(0, 0, 0); stroke-opacity: 0; fill: rgb(243, 107, 106); fill-opacity: 1;"/><text class="node-label" data-notex="1" x="0" y="0" text-anchor="start" transform="translate(19,3.2819396825024683)" style="cursor: default; font-family: Arial, Helvetica, 'Microsoft YaHei'; font-size: 7.5px; fill: rgb(42, 63, 95); fill-opacity: 1; text-shadow: rgb(255, 255, 255) 1px 1px 1px, rgb(255, 255, 255) -1px -1px 1px, rgb(255, 255, 255) 1px -1px 1px, rgb(255, 255, 255) -1px 1px 1px; white-space: pre;">DAY (OH)</text></g><g class="sankey-node" transform="translate(126.500,208.356)" style="opacity: 1;"><rect class="node-rect" width="16" height="1.0122304756100107" style="stroke-width: 0; stroke: rgb(0, 0, 0); stroke-opacity: 0; fill: rgb(244, 114, 113); fill-opacity: 1;"/><text class="node-label" data-notex="1" x="0" y="0" text-anchor="start" transform="translate(19,3.1311152378050053)" style="cursor: default; font-family: Arial, Helvetica, 'Microsoft YaHei'; font-size: 7.5px; fill: rgb(42, 63, 95); fill-opacity: 1; text-shadow: rgb(255, 255, 255) 1px 1px 1px, rgb(255, 255, 255) -1px -1px 1px, rgb(255, 255, 255) 1px -1px 1px, rgb(255, 255, 255) -1px 1px 1px; white-space: pre;">DEOK (OH)</text></g><g class="sankey-node" transform="translate(126.500,-0.000)" style="opacity: 1;"><rect class="node-rect" width="16" height="45.7388550955517" style="stroke-width: 0; stroke: rgb(0, 0, 0); stroke-opacity: 0; fill: rgb(244, 121, 120); fill-opacity: 1;"/><text class="node-label" data-notex="1" x="0" y="0" text-anchor="start" transform="translate(19,25.49442754777585)" style="cursor: default; font-family: Arial, Helvetica, 'Microsoft YaHei'; font-size: 7.5px; fill: rgb(42, 63, 95); fill-opacity: 1; text-shadow: rgb(255, 255, 255) 1px 1px 1px, rgb(255, 255, 255) -1px -1px 1px, rgb(255, 255, 255) 1px -1px 1px, rgb(255, 255, 255) -1px 1px 1px; white-space: pre;">DOM (VA)</text></g><g class="sankey-node" transform="translate(126.500,106.171)" style="opacity: 1;"><rect class="node-rect" width="16" height="1.0532562625897413" style="stroke-width: 0; stroke: rgb(0, 0, 0); stroke-opacity: 0; fill: rgb(245, 128, 127); fill-opacity: 1;"/><text class="node-label" data-notex="1" x="0" y="0" text-anchor="start" transform="translate(19,3.1516281312948706)" style="cursor: default; font-family: Arial, Helvetica, 'Microsoft YaHei'; font-size: 7.5px; fill: rgb(42, 63, 95); fill-opacity: 1; text-shadow: rgb(255, 255, 255) 1px 1px 1px, rgb(255, 255, 255) -1px -1px 1px, rgb(255, 255, 255) 1px -1px 1px, rgb(255, 255, 255) -1px 1px 1px; white-space: pre;">DPL (DE, MD)</text></g><g class="sankey-node" transform="translate(126.500,232.095)" style="opacity: 1;"><rect class="node-rect" width="16" height="0.5252139260240369" style="stroke-width: 0; stroke: rgb(0, 0, 0); stroke-opacity: 0; fill: rgb(245, 135, 134); fill-opacity: 1;"/><text class="node-label" data-notex="1" x="0" y="0" text-anchor="start" transform="translate(19,2.8876069630120185)" style="cursor: default; font-family: Arial, Helvetica, 'Microsoft YaHei'; font-size: 7.5px; fill: rgb(42, 63, 95); fill-opacity: 1; text-shadow: rgb(255, 255, 255) 1px 1px 1px, rgb(255, 255, 255) -1px -1px 1px, rgb(255, 255, 255) 1px -1px 1px, rgb(255, 255, 255) -1px 1px 1px; white-space: pre;">DUQ (PA)</text></g><g class="sankey-node" transform="translate(126.500,94.590)" style="opacity: 1;"><rect class="node-rect" width="16" height="1.2099916275450937" style="stroke-width: 0; stroke: rgb(0, 0, 0); stroke-opacity: 0; fill: rgb(246, 142, 141); fill-opacity: 1;"/><text class="node-label" data-notex="1" x="0" y="0" text-anchor="start" transform="translate(19,3.229995813772547)" style="cursor: default; font-family: Arial, Helvetica, 'Microsoft YaHei'; font-size: 7.5px; fill: rgb(42, 63, 95); fill-opacity: 1; text-shadow: rgb(255, 255, 255) 1px 1px 1px, rgb(255, 255, 255) -1px -1px 1px, rgb(255, 255, 255) 1px -1px 1px, rgb(255, 255, 255) -1px 1px 1px; white-space: pre;">JCPL (NJ)</text></g><g class="sankey-node" transform="translate(126.500,242.991)" style="opacity: 1;"><rect class="node-rect" width="16" height="0.5986110370781148" style="stroke-width: 0; stroke: rgb(0, 0, 0); stroke-opacity: 0; fill: rgb(247, 149, 149); fill-opacity: 1;"/><text class="node-label" data-notex="1" x="0" y="0" text-anchor="start" transform="translate(19,2.9243055185390574)" style="cursor: default; font-family: Arial, Helvetica, 'Microsoft YaHei'; font-size: 7.5px; fill: rgb(42, 63, 95); fill-opacity: 1; text-shadow: rgb(255, 255, 255) 1px 1px 1px, rgb(255, 255, 255) -1px -1px 1px, rgb(255, 255, 255) 1px -1px 1px, rgb(255, 255, 255) -1px 1px 1px; white-space: pre;">METED (PA)</text></g><g class="sankey-node" transform="translate(126.500,82.525)" style="opacity: 1;"><rect class="node-rect" width="16" height="1.694319656777111" style="stroke-width: 0; stroke: rgb(0, 0, 0); stroke-opacity: 0; fill: rgb(247, 156, 156); fill-opacity: 1;"/><text class="node-label" data-notex="1" x="0" y="0" text-anchor="start" transform="translate(19,3.4721598283885555)" style="cursor: default; font-family: Arial, Helvetica, 'Microsoft YaHei'; font-size: 7.5px; fill: rgb(42, 63, 95); fill-opacity: 1; text-shadow: rgb(255, 255, 255) 1px 1px 1px, rgb(255, 255, 255) -1px -1px 1px, rgb(255, 255, 255) 1px -1px 1px, rgb(255, 255, 255) -1px 1px 1px; white-space: pre;">PECO (PA)</text></g><g class="sankey-node" transform="translate(126.500,253.960)" style="opacity: 1;"><rect class="node-rect" width="16" height="0.5761437612748637" style="stroke-width: 0; stroke: rgb(0, 0, 0); stroke-opacity: 0; fill: rgb(248, 163, 163); fill-opacity: 1;"/><text class="node-label" data-notex="1" x="0" y="0" text-anchor="start" transform="translate(19,2.913071880637432)" style="cursor: default; font-family: Arial, Helvetica, 'Microsoft YaHei'; font-size: 7.5px; fill: rgb(42, 63, 95); fill-opacity: 1; text-shadow: rgb(255, 255, 255) 1px 1px 1px, rgb(255, 255, 255) -1px -1px 1px, rgb(255, 255, 255) 1px -1px 1px, rgb(255, 255, 255) -1px 1px 1px; white-space: pre;">PENELEC (PA)</text></g><g class="sankey-node" transform="translate(126.500,264.907)" style="opacity: 1;"><rect class="node-rect" width="16" height="3.40924262894589" style="stroke-width: 0; stroke: rgb(0, 0, 0); stroke-opacity: 0; fill: rgb(248, 170, 170); fill-opacity: 1;"/><text class="node-label" data-notex="1" x="0" y="0" text-anchor="start" transform="translate(19,4.329621314472945)" style="cursor: default; font-family: Arial, Helvetica, 'Microsoft YaHei'; font-size: 7.5px; fill: rgb(42, 63, 95); fill-opacity: 1; text-shadow: rgb(255, 255, 255) 1px 1px 1px, rgb(255, 255, 255) -1px -1px 1px, rgb(255, 255, 255) 1px -1px 1px, rgb(255, 255, 255) -1px 1px 1px; white-space: pre;">PEPCO (MD)</text></g><g class="sankey-node" transform="translate(126.500,70.697)" style="opacity: 1;"><rect class="node-rect" width="16" height="1.4578665340546308" style="stroke-width: 0; stroke: rgb(0, 0, 0); stroke-opacity: 0; fill: rgb(249, 177, 177); fill-opacity: 1;"/><text class="node-label" data-notex="1" x="0" y="0" text-anchor="start" transform="translate(19,3.3539332670273154)" style="cursor: default; font-family: Arial, Helvetica, 'Microsoft YaHei'; font-size: 7.5px; fill: rgb(42, 63, 95); fill-opacity: 1; text-shadow: rgb(255, 255, 255) 1px 1px 1px, rgb(255, 255, 255) -1px -1px 1px, rgb(255, 255, 255) 1px -1px 1px, rgb(255, 255, 255) -1px 1px 1px; white-space: pre;">PPL (PA)</text></g><g class="sankey-node" transform="translate(126.500,219.738)" style="opacity: 1;"><rect class="node-rect" width="16" height="1.9867828988486167" style="stroke-width: 0; stroke: rgb(0, 0, 0); stroke-opacity: 0; fill: rgb(249, 184, 184); fill-opacity: 1;"/><text class="node-label" data-notex="1" x="0" y="0" text-anchor="start" transform="translate(19,3.6183914494243083)" style="cursor: default; font-family: Arial, Helvetica, 'Microsoft YaHei'; font-size: 7.5px; fill: rgb(42, 63, 95); fill-opacity: 1; text-shadow: rgb(255, 255, 255) 1px 1px 1px, rgb(255, 255, 255) -1px -1px 1px, rgb(255, 255, 255) 1px -1px 1px, rgb(255, 255, 255) -1px 1px 1px; white-space: pre;">PSEG (NJ)</text></g><g class="sankey-node" transform="translate(126.500,134.259)" style="opacity: 1;"><rect class="node-rect" width="16" height="0.5" style="stroke-width: 0; stroke: rgb(0, 0, 0); stroke-opacity: 0; fill: rgb(250, 191, 191); fill-opacity: 1;"/><text class="node-label" data-notex="1" x="0" y="0" text-anchor="start" transform="translate(19,2.875)" style="cursor: default; font-family: Arial, Helvetica, 'Microsoft YaHei'; font-size: 7.5px; fill: rgb(42, 63, 95); fill-opacity: 1; text-shadow: rgb(255, 255, 255) 1px 1px 1px, rgb(255, 255, 255) -1px -1px 1px, rgb(255, 255, 255) 1px -1px 1px, rgb(255, 255, 255) -1px 1px 1px; white-space: pre;">RECO (NJ)</text></g><g class="sankey-node" transform="translate(253.000,142.134)" style="opacity: 1;"><rect class="node-rect" width="16" height="28.166745651782435" style="stroke-width: 0; stroke: rgb(0, 0, 0); stroke-opacity: 0; fill: rgb(108, 145, 194); fill-opacity: 1;"/><text class="node-label" data-notex="1" x="0" y="0" text-anchor="end" transform="translate(-3,2.0833728258912174)" style="cursor: default; font-family: Arial, Helvetica, 'Microsoft YaHei'; font-size: 7.5px; fill: rgb(42, 63, 95); fill-opacity: 1; text-shadow: rgb(255, 255, 255) 1px 1px 1px, rgb(255, 255, 255) -1px -1px 1px, rgb(255, 255, 255) 1px -1px 1px, rgb(255, 255, 255) -1px 1px 1px; white-space: pre;"><tspan class="line" dy="0em" x="0" y="0">DC</tspan><tspan class="line" dy="1.3em" x="0" y="0">Cost</tspan><tspan class="line" dy="2.6em" x="0" y="0">Allocation</tspan><tspan class="line" dy="3.9000000000000004em" x="0" y="0"> (1591.2)</tspan></text></g><g class="sankey-node" transform="translate(253.000,84.926)" style="opacity: 1;"><rect class="node-rect" width="16" height="46.83799434497493" style="stroke-width: 0; stroke: rgb(0, 0, 0); stroke-opacity: 0; fill: rgb(175, 199, 120); fill-opacity: 1;"/><text class="node-label" data-notex="1" x="0" y="0" text-anchor="end" transform="translate(-3,11.418997172487465)" style="cursor: default; font-family: Arial, Helvetica, 'Microsoft YaHei'; font-size: 7.5px; fill: rgb(42, 63, 95); fill-opacity: 1; text-shadow: rgb(255, 255, 255) 1px 1px 1px, rgb(255, 255, 255) -1px -1px 1px, rgb(255, 255, 255) 1px -1px 1px, rgb(255, 255, 255) -1px 1px 1px; white-space: pre;"><tspan class="line" dy="0em" x="0" y="0">Residential User</tspan><tspan class="line" dy="1.3em" x="0" y="0">Cost</tspan><tspan class="line" dy="2.6em" x="0" y="0">Allocation</tspan><tspan class="line" dy="3.9000000000000004em" x="0" y="0"> (2645.9)</tspan></text></g></g></g><defs id="topdefs-6093ed"><g class="clips"/></defs><g class="layer-above"><g class="imagelayer"/><g class="shapelayer"/></g><g class="infolayer"><g class="g-gtitle"/><g class="first-render"/></g></svg>